<svg width="334" height="118" viewBox="0 0 334 118" fill="none" xmlns="http://www.w3.org/2000/svg">
<g clip-path="url(#clip0_30_175)">
<rect width="334" height="118" rx="30" fill="#42C83C"/>
<path fill-rule="evenodd" clip-rule="evenodd" d="M334.516 -61.6635C327.755 -54.9191 319.36 -45.6737 316.702 -35.1802C315.871 -31.901 315.6 -28.4986 316.113 -25.0129C315.553 -22.5455 315.316 -20.0106 315.496 -17.4251C315.429 -17.1865 315.365 -16.9472 315.304 -16.7073C314.832 -14.8432 314.541 -12.9393 314.472 -11.0028C314.153 -10.0971 313.873 -9.18081 313.639 -8.25481C313.569 -7.97766 313.502 -7.69964 313.44 -7.42076C307.277 -0.994805 300.58 7.21779 298.258 16.3824C296.927 21.6383 297.033 27.211 299.503 32.9354C301.972 38.6571 306.794 44.5081 314.854 50.338C333.631 63.9195 351.102 64.6009 364.506 65.1236C365.751 65.1721 366.96 65.2193 368.133 65.2753C375.053 65.606 380.594 66.2445 384.45 69.1875C388.286 72.115 390.528 77.3906 390.641 87.1987L391.23 87.2126C391.117 77.3553 388.866 71.8574 384.812 68.763C380.778 65.684 375.033 65.052 368.142 64.7227C366.967 64.6666 365.757 64.6193 364.513 64.5706C351.115 64.0468 333.821 63.3705 315.202 49.904C307.206 44.1198 302.466 38.3467 300.048 32.7435C297.631 27.1429 297.524 21.69 298.831 16.5287C301.038 7.81849 307.27 -0.0502673 313.223 -6.34749L313.217 -6.31736C313.066 -5.98484 312.919 -5.65068 312.777 -5.31491C308.671 -0.207536 305.04 5.61082 303.454 11.8738C302.122 17.1297 302.228 22.7024 304.699 28.4267C307.168 34.1484 311.989 39.9994 320.049 45.8293C338.827 59.4109 356.298 60.0922 369.701 60.615C370.946 60.6635 372.156 60.7107 373.328 60.7667C380.248 61.0973 385.79 61.7358 389.646 64.6788C393.481 67.6064 395.724 72.8819 395.837 82.6901L396.426 82.704C396.312 72.8467 394.061 67.3488 390.007 64.2544C385.973 61.1754 380.229 60.5433 373.337 60.2141C372.163 60.158 370.953 60.1106 369.709 60.062C356.311 59.5381 339.016 58.8619 320.398 45.3954C312.401 39.6112 307.661 33.8381 305.243 28.2349C302.826 22.6343 302.719 17.1814 304.027 12.0201C305.326 6.8944 308.018 2.06012 311.227 -2.33401C309.732 0.396816 308.527 3.25478 307.778 6.21189C306.447 11.4678 306.553 17.0405 309.023 22.7648C311.492 28.4865 316.314 34.3375 324.374 40.1674C343.151 53.749 360.622 54.4303 374.026 54.9531L374.027 54.9531L374.027 54.9531L374.032 54.9533L374.035 54.9534C375.277 55.0019 376.483 55.0489 377.653 55.1048C384.573 55.4354 390.114 56.0739 393.97 59.0169C397.806 61.9445 400.048 67.22 400.161 77.0282L400.75 77.0421C400.637 67.1848 398.386 61.6869 394.332 58.5925C390.298 55.5135 384.553 54.8814 377.662 54.5522C376.487 54.4961 375.277 54.4487 374.033 54.4001C360.635 53.8762 343.341 53.2 324.723 39.7335C316.726 33.9493 311.986 28.1762 309.568 22.573C307.151 16.9724 307.044 11.5195 308.351 6.3582C309.027 3.69017 310.081 1.1011 311.389 -1.38804C311.31 -1.10971 311.234 -0.830471 311.163 -0.550343C309.832 4.70553 309.938 10.2783 312.408 16.0026C314.878 21.7243 319.699 27.5753 327.759 33.4052C346.536 46.9868 364.007 47.6681 377.411 48.1908L377.413 48.1909C378.657 48.2394 379.866 48.2866 381.038 48.3426C387.958 48.6732 393.5 49.3117 397.356 52.2547C401.191 55.1823 403.434 60.4578 403.547 70.2659L404.136 70.2799C404.022 60.4225 401.771 54.9247 397.717 51.8302C393.683 48.7513 387.939 48.1192 381.047 47.7899C379.872 47.7338 378.662 47.6865 377.419 47.6379C364.021 47.114 346.726 46.4378 328.108 32.9713C320.111 27.1871 315.371 21.414 312.953 15.8107C310.536 10.2102 310.429 4.75723 311.737 -0.404034C312.049 -1.63723 312.442 -2.85355 312.904 -4.05095C312.526 -0.0611734 313.062 4.07727 314.884 8.29815C317.353 14.0198 322.174 19.8708 330.234 25.7007C349.012 39.2823 366.483 39.9636 379.887 40.4864C381.131 40.5349 382.341 40.5821 383.513 40.6381C390.434 40.9687 395.975 41.6072 399.831 44.5503C403.666 47.4778 405.909 52.7533 406.022 62.5615L406.611 62.5754C406.497 52.7181 404.246 47.2202 400.192 44.1258C396.158 41.0468 390.414 40.4147 383.522 40.0855C382.348 40.0294 381.138 39.982 379.894 39.9334C366.496 39.4096 349.201 38.7333 330.583 25.2668C322.586 19.4826 317.847 13.7095 315.428 8.10627C313.458 3.54022 313.023 -0.927705 313.638 -5.21945C313.889 -5.60671 314.144 -5.99103 314.405 -6.37233C314.5 -6.48578 314.596 -6.59888 314.691 -6.71159C314.993 -4.55483 315.595 -2.36592 316.549 -0.154374C319.019 5.56731 323.84 11.4183 331.9 17.2482C350.677 30.8298 368.148 31.5111 381.552 32.0339C382.797 32.0824 384.007 32.1296 385.179 32.1856C392.099 32.5162 397.641 33.1547 401.497 36.0977C405.332 39.0253 407.575 44.3008 407.688 54.109L408.277 54.1229C408.163 44.2656 405.912 38.7677 401.858 35.6733C397.824 32.5943 392.08 31.9622 385.188 31.633C384.013 31.5768 382.803 31.5295 381.56 31.4809C368.162 30.957 350.867 30.2808 332.249 16.8143C324.252 11.0301 319.512 5.25697 317.094 -0.346245C316.079 -2.69739 315.472 -5.02251 315.205 -7.31096C315.906 -8.12082 316.613 -8.91048 317.32 -9.67874C317.388 -9.51162 317.458 -9.34437 317.531 -9.17699C320 -3.45531 324.821 2.39571 332.881 8.22558C351.658 21.8072 369.13 22.4885 382.533 23.0112L382.536 23.0113L382.539 23.0114L382.544 23.0116L382.549 23.0118C383.789 23.0602 384.993 23.1072 386.16 23.163C393.08 23.4936 398.622 24.1321 402.478 27.0751C406.313 30.0027 408.556 35.2782 408.669 45.0864L409.258 45.1003C409.144 35.2429 406.893 29.7451 402.839 26.6506C398.805 23.5717 393.061 22.9396 386.169 22.6103C384.995 22.5542 383.784 22.5069 382.541 22.4583C369.143 21.9344 351.848 21.2582 333.23 7.79167C325.233 2.00747 320.493 -3.76565 318.075 -9.36887C317.963 -9.62873 317.856 -9.88828 317.754 -10.1475C318.804 -11.2761 319.85 -12.3569 320.87 -13.3859C323.641 -9.35581 327.684 -5.2851 333.298 -1.22464C352.075 12.357 369.546 13.0383 382.95 13.561C384.194 13.6096 385.404 13.6567 386.576 13.7127C393.497 14.0434 399.038 14.6819 402.894 17.6249C406.729 20.5524 408.972 25.828 409.085 35.6361L409.674 35.65C409.56 25.7927 407.309 20.2948 403.255 17.2004C399.221 14.1214 393.477 13.4894 386.585 13.1601C385.411 13.104 384.201 13.0567 382.957 13.0081C369.559 12.4842 352.264 11.8079 333.646 -1.65856C328.019 -5.72842 324.005 -9.79279 321.278 -13.7964L321.462 -13.9815L321.704 -14.2225L321.268 -14.6095C321.162 -14.5035 321.055 -14.3968 320.948 -14.2895C320.912 -14.3451 320.875 -14.4008 320.839 -14.4564C322.59 -16.4006 324.356 -18.2161 326.028 -19.8844L325.593 -20.2714C323.961 -18.6435 322.233 -16.8698 320.515 -14.9681C320.295 -15.3212 320.086 -15.6738 319.886 -16.0258C322.924 -19.9898 326.328 -23.5687 329.413 -26.6467L328.978 -27.0336C325.951 -24.0143 322.597 -20.4938 319.577 -16.5844C319.251 -17.1866 318.954 -17.7872 318.683 -18.3859C322.399 -24.5081 327.47 -29.9434 331.889 -34.3511L331.453 -34.7381C327.126 -30.4215 322.129 -25.0804 318.396 -19.0433C318.063 -19.8344 317.776 -20.6225 317.532 -21.4072C321.101 -29.7571 327.868 -37.1312 333.554 -42.8037L333.119 -43.1906C327.585 -37.6707 320.957 -30.4754 317.276 -22.2917C317.033 -23.1904 316.846 -24.0844 316.711 -24.9732C316.758 -25.1771 316.807 -25.3806 316.859 -25.5836C319.479 -35.9244 327.772 -45.0791 334.536 -51.8263L334.1 -52.2133C327.528 -45.657 319.411 -36.7372 316.521 -26.6049C316.287 -29.4822 316.582 -32.299 317.275 -35.0339C319.895 -45.3746 328.188 -54.5293 334.952 -61.2765L334.516 -61.6635ZM314.565 -7.74686C314.494 -7.60931 314.425 -7.47146 314.356 -7.33332C314.43 -7.43873 314.504 -7.5439 314.579 -7.64881L314.569 -7.75086L314.565 -7.74686ZM316.271 -9.92485C316.483 -10.1987 316.697 -10.4707 316.912 -10.7407C316.829 -10.9724 316.75 -11.2039 316.674 -11.435C316.291 -10.8284 315.922 -10.2149 315.567 -9.5946C315.736 -9.76488 315.905 -9.93365 316.073 -10.1009L316.271 -9.92485ZM320.538 -13.8775C319.927 -13.2614 319.304 -12.6257 318.676 -11.9715C319.261 -12.6676 319.852 -13.3497 320.446 -14.0171L320.506 -13.9258L320.538 -13.8775ZM320.118 -14.5269C319.907 -14.8621 319.705 -15.197 319.511 -15.5316C318.664 -14.4072 317.85 -13.2528 317.081 -12.0708C317.162 -11.8048 317.248 -11.5384 317.34 -11.2716C318.25 -12.3925 319.182 -13.4786 320.118 -14.5269ZM314.411 -8.72306L314.337 -8.58501C314.382 -8.75153 314.429 -8.91774 314.477 -9.08364C314.48 -9.0107 314.483 -8.93772 314.487 -8.8647L314.411 -8.72306ZM316.445 -12.1698C315.959 -11.4141 315.491 -10.6469 315.045 -9.86909C315.042 -10.2091 315.046 -10.5482 315.057 -10.8863C315.368 -11.7613 315.716 -12.6266 316.097 -13.4815C316.2 -13.0454 316.316 -12.6081 316.445 -12.1698ZM319.196 -16.0872C318.389 -15.0235 317.608 -13.9319 316.867 -12.8145C316.726 -13.331 316.605 -13.846 316.501 -14.3594C317.054 -15.5232 317.666 -16.6667 318.326 -17.7878C318.592 -17.2221 318.882 -16.6552 319.196 -16.0872ZM318.028 -18.4399C318.001 -18.5023 317.974 -18.5648 317.947 -18.6272C317.665 -19.2809 317.413 -19.9326 317.192 -20.5821C316.768 -19.5202 316.398 -18.4431 316.09 -17.3523C316.139 -16.6851 316.216 -16.0146 316.323 -15.341C316.849 -16.392 317.42 -17.4255 318.028 -18.4399ZM315.889 -14.4449C315.806 -14.8681 315.735 -15.2901 315.676 -15.7109C315.471 -14.7852 315.312 -13.8505 315.205 -12.9075C315.421 -13.4238 315.649 -13.9363 315.889 -14.4449ZM316.911 -21.4545C316.588 -20.689 316.292 -19.9151 316.026 -19.1334C316.027 -20.583 316.158 -22.0157 316.4 -23.4287C316.541 -22.7732 316.711 -22.1151 316.911 -21.4545ZM292.347 19.8258C295.006 9.33223 303.401 0.0868259 310.162 -6.65754L310.597 -6.27056C303.833 0.476598 295.54 9.63133 292.92 19.9721C291.613 25.1333 291.72 30.5863 294.137 36.1868C296.555 41.7901 301.295 47.5632 309.292 53.3474C327.91 66.8139 345.204 67.4901 358.602 68.014C359.846 68.0626 361.056 68.1099 362.231 68.166C369.122 68.4953 374.867 69.1274 378.901 72.2064C382.955 75.3008 385.206 80.7986 385.319 90.656L384.731 90.642C384.617 80.8339 382.375 75.5584 378.539 72.6308C374.684 69.6878 369.142 69.0493 362.222 68.7187C361.049 68.6627 359.84 68.6155 358.595 68.5669C345.191 68.0442 327.72 67.3629 308.943 53.7813C300.883 47.9514 296.061 42.1004 293.592 36.3787C291.122 30.6544 291.016 25.0816 292.347 19.8258ZM303.726 -4.08031C296.965 2.66406 288.57 11.9095 285.912 22.403C284.58 27.6589 284.686 33.2316 287.156 38.9559C289.626 44.6776 294.447 50.5287 302.507 56.3585C321.284 69.9401 338.755 70.6214 352.159 71.1442L352.159 71.1442C353.404 71.1927 354.614 71.2399 355.786 71.2959C362.706 71.6265 368.248 72.265 372.104 75.208C375.939 78.1356 378.182 83.4111 378.295 93.2193L378.884 93.2332C378.77 83.3759 376.519 77.878 372.465 74.7836C368.431 71.7046 362.687 71.0725 355.795 70.7433C354.621 70.6872 353.41 70.6398 352.167 70.5912C338.769 70.0674 321.474 69.3911 302.856 55.9246C294.859 50.1404 290.119 44.3673 287.701 38.7641C285.284 33.1635 285.177 27.7106 286.485 22.5493C289.105 12.2086 297.398 3.05383 304.162 -3.69333L303.726 -4.08031ZM279.127 24.3579C281.786 13.8644 290.181 4.61897 296.942 -2.1254L297.377 -1.73842C290.613 5.00874 282.32 14.1635 279.7 24.5042C278.393 29.6655 278.5 35.1184 280.917 40.719C283.335 46.3222 288.075 52.0953 296.071 57.8795C314.689 71.346 331.984 72.0223 345.382 72.5461C346.626 72.5948 347.836 72.6421 349.01 72.6982C355.902 73.0274 361.647 73.6595 365.681 76.7385C369.735 79.8329 371.986 85.3308 372.099 95.1881L371.51 95.1742C371.397 85.3661 369.155 80.0905 365.319 77.163C361.463 74.2199 355.922 73.5814 349.002 73.2508C347.829 73.1948 346.62 73.1476 345.375 73.0991C331.971 72.5764 314.5 71.895 295.723 58.3134C287.663 52.4836 282.841 46.6325 280.372 40.9109C277.902 35.1865 277.795 29.6138 279.127 24.3579ZM289.952 -0.557702C283.191 6.18667 274.796 15.4321 272.138 25.9256C270.806 31.1815 270.912 36.7542 273.383 42.4786C275.852 48.2002 280.673 54.0513 288.734 59.8811C307.511 73.4627 324.982 74.1441 338.386 74.6668C339.63 74.7153 340.84 74.7625 342.012 74.8185C348.933 75.1491 354.474 75.7876 358.33 78.7307C362.165 81.6582 364.408 86.9337 364.521 96.7419L365.11 96.7558C364.996 86.8985 362.745 81.4006 358.691 78.3062C354.657 75.2272 348.913 74.5951 342.021 74.2659C340.847 74.2098 339.637 74.1625 338.393 74.1138C324.995 73.59 307.7 72.9137 289.082 59.4472C281.085 53.663 276.346 47.8899 273.927 42.2867C271.511 36.6861 271.403 31.2332 272.711 26.0719C275.331 15.7312 283.624 6.57644 290.388 -0.17072L289.952 -0.557702ZM265.051 27.3041C267.71 16.8106 276.105 7.56518 282.866 0.820812L283.301 1.20779C276.538 7.95495 268.244 17.1097 265.625 27.4504C264.317 32.6117 264.424 38.0646 266.841 43.6652C269.259 49.2684 273.999 55.0415 281.996 60.8257C300.614 74.2922 317.909 74.9685 331.307 75.4923C332.55 75.541 333.76 75.5883 334.935 75.6444C341.827 75.9737 347.571 76.6057 351.605 79.6847C355.659 82.7791 357.91 88.277 358.024 98.1343L357.435 98.1204C357.322 88.3123 355.079 83.0367 351.243 80.1092C347.388 77.1662 341.846 76.5276 334.926 76.197C333.754 76.141 332.544 76.0938 331.299 76.0453C317.895 75.5226 300.424 74.8412 281.647 61.2597C273.587 55.4298 268.765 49.5788 266.296 43.8571C263.826 38.1327 263.72 32.56 265.051 27.3041ZM275.764 2.16757C269.003 8.91193 260.608 18.1573 257.95 28.6509C256.618 33.9067 256.724 39.4795 259.195 45.2038C261.664 50.9255 266.485 56.7765 274.545 62.6064C293.323 76.188 310.794 76.8693 324.198 77.3921C325.442 77.4406 326.652 77.4878 327.824 77.5438C334.744 77.8744 340.286 78.5129 344.142 81.4559C347.977 84.3835 350.22 89.659 350.333 99.4672L350.922 99.4811C350.808 89.6238 348.557 84.1259 344.503 81.0315C340.469 77.9525 334.725 77.3204 327.833 76.9911C326.659 76.935 325.449 76.8877 324.205 76.8391C310.807 76.3152 293.512 75.639 274.894 62.1725C266.897 56.3883 262.158 50.6152 259.739 45.0119C257.323 39.4114 257.215 33.9584 258.523 28.7972C261.143 18.4564 269.436 9.3017 276.2 2.55455L275.764 2.16757ZM250.891 30.084C253.549 19.5904 261.944 10.345 268.705 3.60068L269.141 3.98766C262.377 10.7348 254.084 19.8896 251.464 30.2303C250.156 35.3916 250.264 40.8445 252.68 46.4451C255.099 52.0483 259.838 57.8214 267.835 63.6056C286.453 77.0721 303.748 77.7483 317.146 78.2722C318.39 78.3208 319.6 78.3682 320.774 78.4243C327.666 78.7535 333.41 79.3856 337.444 82.4646C341.498 85.559 343.749 91.0569 343.863 100.914L343.274 100.9C343.161 91.0921 340.918 85.8166 337.083 82.889C333.227 79.946 327.686 79.3075 320.765 78.9769C319.593 78.9209 318.383 78.8737 317.139 78.8252C303.735 78.3024 286.264 77.6211 267.487 64.0395C259.426 58.2096 254.605 52.3586 252.136 46.6369C249.665 40.9126 249.559 35.3399 250.891 30.084ZM261.736 5.20689C254.975 11.9513 246.58 21.1967 243.921 31.6902C242.59 36.9461 242.696 42.5188 245.166 48.2431C247.636 53.9648 252.457 59.8158 260.517 65.6457C279.294 79.2273 296.765 79.9086 310.169 80.4314L310.169 80.4314C311.414 80.4799 312.624 80.5271 313.796 80.5831C320.716 80.9137 326.258 81.5522 330.114 84.4953C333.949 87.4228 336.192 92.6983 336.305 102.506L336.894 102.52C336.78 92.6631 334.529 87.1652 330.475 84.0708C326.441 80.9918 320.697 80.3597 313.805 80.0305C312.63 79.9744 311.42 79.927 310.177 79.8784C296.779 79.3546 279.484 78.6783 260.866 65.2118C252.869 59.4276 248.129 53.6545 245.711 48.0513C243.294 42.4507 243.187 36.9978 244.495 31.8365C247.115 21.4958 255.408 12.341 262.171 5.59387L261.736 5.20689ZM237.075 33.5295C239.734 23.036 248.129 13.7906 254.89 7.04624L255.325 7.43322C248.562 14.1804 240.268 23.3351 237.649 33.6759C236.341 38.8371 236.448 44.2901 238.865 49.8906C241.283 55.4938 246.023 61.267 254.02 67.0512C272.638 80.5177 289.933 81.1939 303.33 81.7178C304.574 81.7664 305.784 81.8137 306.959 81.8698C313.85 82.1991 319.595 82.8312 323.629 85.9101C327.683 89.0046 329.934 94.5024 330.048 104.36L329.459 104.346C329.346 94.5377 327.103 89.2622 323.267 86.3346C319.412 83.3916 313.87 82.7531 306.95 82.4225C305.778 82.3664 304.568 82.3193 303.323 82.2707L303.323 82.2707C289.919 81.748 272.448 81.0667 253.671 67.4851C245.611 61.6552 240.789 55.8042 238.32 50.0825C235.85 44.3582 235.744 38.7854 237.075 33.5295ZM248.191 9.15866C241.43 15.903 233.035 25.1484 230.377 35.642C229.045 40.8978 229.151 46.4706 231.622 52.1949C234.091 57.9166 238.912 63.7676 246.972 69.5975C265.749 83.1791 283.221 83.8604 296.624 84.3832L296.624 84.3831L296.624 84.3831C297.869 84.4317 299.079 84.4789 300.251 84.5349C307.171 84.8655 312.713 85.504 316.569 88.447C320.404 91.3746 322.647 96.6501 322.76 106.458L323.349 106.472C323.235 96.6148 320.984 91.117 316.93 88.0226C312.896 84.9436 307.152 84.3115 300.26 83.9822C299.086 83.9261 297.875 83.8788 296.632 83.8302C283.234 83.3063 265.939 82.6301 247.321 69.1636C239.324 63.3794 234.584 57.6063 232.166 52.003C229.749 46.4025 229.642 40.9495 230.95 35.7883C233.57 25.4475 241.863 16.2928 248.627 9.54564L248.191 9.15866Z" fill="url(#paint0_radial_30_175)" fill-opacity="0.58"/>
<path d="M20.6602 20.375V26H19.7812C19.8171 25.8047 19.8382 25.5231 19.8447 25.1553C19.8512 24.7842 19.8545 24.3577 19.8545 23.876V20.9951C19.8545 20.5133 19.8512 20.0885 19.8447 19.7207C19.8382 19.3496 19.8171 19.0664 19.7812 18.8711H20.6602L24.542 24.5205V18.8711H25.4209C25.4046 18.9688 25.3916 19.0892 25.3818 19.2324C25.3721 19.3757 25.3639 19.5384 25.3574 19.7207C25.3542 19.8997 25.3509 20.0967 25.3477 20.3115C25.3477 20.5264 25.3477 20.7542 25.3477 20.9951V26H24.542L20.6602 20.375ZM27.6914 23.6318C27.7012 23.9183 27.7451 24.1673 27.8232 24.3789C27.9046 24.5905 28.0137 24.7663 28.1504 24.9062C28.2904 25.043 28.4531 25.1455 28.6387 25.2139C28.8275 25.2822 29.0326 25.3164 29.2539 25.3164C29.5697 25.3164 29.8789 25.2806 30.1816 25.209C30.4844 25.1374 30.7855 25.0104 31.085 24.8281L31.1826 25.6338C31.0101 25.7217 30.8408 25.7965 30.6748 25.8584C30.5088 25.9202 30.3428 25.9707 30.1768 26.0098C30.0107 26.0488 29.8415 26.0765 29.6689 26.0928C29.4997 26.1123 29.3206 26.1221 29.1318 26.1221C28.8193 26.1221 28.5215 26.0684 28.2383 25.9609C27.9551 25.8503 27.7061 25.6891 27.4912 25.4775C27.2764 25.2627 27.1055 24.9974 26.9785 24.6816C26.8516 24.3659 26.7881 23.9997 26.7881 23.583C26.7881 23.1794 26.8418 22.8148 26.9492 22.4893C27.0599 22.1605 27.2161 21.8805 27.418 21.6494C27.6198 21.415 27.8656 21.236 28.1553 21.1123C28.445 20.9854 28.7705 20.9219 29.1318 20.9219C29.3988 20.9219 29.6348 20.9544 29.8398 21.0195C30.0449 21.0814 30.2223 21.1693 30.3721 21.2832C30.5218 21.3939 30.6471 21.5241 30.748 21.6738C30.849 21.8236 30.9287 21.9847 30.9873 22.1572C31.0492 22.3298 31.0931 22.5104 31.1191 22.6992C31.1452 22.8848 31.1582 23.0687 31.1582 23.251V23.4414C31.1582 23.5228 31.1566 23.5863 31.1533 23.6318H27.6914ZM29.0586 21.6543C28.7005 21.6543 28.4076 21.7601 28.1797 21.9717C27.9518 22.18 27.8021 22.5055 27.7305 22.9482H30.2793C30.2793 22.7399 30.2484 22.556 30.1865 22.3965C30.1279 22.2337 30.0433 22.097 29.9326 21.9863C29.8252 21.8757 29.6966 21.7926 29.5469 21.7373C29.3971 21.682 29.2344 21.6543 29.0586 21.6543ZM35.8262 21.0195L37.0957 24.9502L38.1211 21.0195H39.0244C38.9658 21.2051 38.9137 21.3727 38.8682 21.5225C38.8258 21.6689 38.7852 21.8105 38.7461 21.9473C38.707 22.0807 38.668 22.2126 38.6289 22.3428C38.5931 22.4697 38.554 22.6064 38.5117 22.7529L37.6084 26H36.6807L35.46 22.167L34.2393 26H33.3115L32.4082 22.7529C32.3724 22.6227 32.335 22.4941 32.2959 22.3672C32.2601 22.2402 32.221 22.1084 32.1787 21.9717C32.1396 21.835 32.0973 21.6885 32.0518 21.5322C32.0062 21.376 31.9541 21.2051 31.8955 21.0195H32.7988L33.8242 24.9502L35.0938 21.0195H35.8262ZM45.2744 19.8232L44.0439 23.3633H46.5195L45.2744 19.8232ZM42.125 26C42.1673 25.9023 42.2113 25.7998 42.2568 25.6924C42.3024 25.585 42.3512 25.4645 42.4033 25.3311C42.4587 25.1943 42.5189 25.0397 42.584 24.8672C42.6491 24.6947 42.724 24.4945 42.8086 24.2666L44.7617 18.8711H45.8115L47.7646 24.2666C47.846 24.4945 47.9193 24.6947 47.9844 24.8672C48.0495 25.0397 48.1097 25.1943 48.165 25.3311C48.2204 25.4645 48.2708 25.585 48.3164 25.6924C48.362 25.7998 48.4059 25.9023 48.4482 26H47.4473L46.7832 24.1201H43.7803L43.126 26H42.125ZM50.5771 23.6807C50.5771 23.8369 50.5788 24.0208 50.582 24.2324C50.5885 24.444 50.5951 24.6589 50.6016 24.877C50.6113 25.0951 50.6211 25.3034 50.6309 25.502C50.6439 25.7005 50.6585 25.8665 50.6748 26H49.6738V20.4824C49.6738 20.0072 49.6657 19.5775 49.6494 19.1934C49.6331 18.806 49.6087 18.4707 49.5762 18.1875H50.5771V23.6807ZM53.1211 18.1875V21.9717C53.235 21.8219 53.3587 21.6836 53.4922 21.5566C53.6257 21.4297 53.7689 21.319 53.9219 21.2246C54.0781 21.1302 54.2458 21.057 54.4248 21.0049C54.6038 20.9495 54.7959 20.9219 55.001 20.9219C55.2484 20.9219 55.4746 20.9821 55.6797 21.1025C55.8848 21.223 56.0622 21.3923 56.2119 21.6104C56.3617 21.8252 56.4772 22.0824 56.5586 22.3818C56.6432 22.6813 56.6855 23.0085 56.6855 23.3633C56.6855 23.7832 56.6286 24.1624 56.5146 24.501C56.404 24.8395 56.2461 25.1292 56.041 25.3701C55.8359 25.611 55.5869 25.7965 55.2939 25.9268C55.0042 26.057 54.6787 26.1221 54.3174 26.1221C54.1188 26.1221 53.9268 26.1074 53.7412 26.0781C53.5557 26.0521 53.375 26.0179 53.1992 25.9756C53.0267 25.93 52.859 25.8828 52.6963 25.834C52.5335 25.7819 52.374 25.7314 52.2178 25.6826V19.9062C52.2178 19.6979 52.2145 19.4896 52.208 19.2812C52.2048 19.0697 52.1982 18.8695 52.1885 18.6807C52.1787 18.4886 52.1641 18.3242 52.1445 18.1875H53.1211ZM53.1211 25.0967C53.2415 25.1455 53.3506 25.1878 53.4482 25.2236C53.5492 25.2562 53.6468 25.2839 53.7412 25.3066C53.8356 25.3262 53.9284 25.3408 54.0195 25.3506C54.1139 25.3604 54.2132 25.3652 54.3174 25.3652C54.5322 25.3652 54.7308 25.3213 54.9131 25.2334C55.0954 25.1455 55.2516 25.0218 55.3818 24.8623C55.5153 24.7028 55.6195 24.5107 55.6943 24.2861C55.7692 24.0583 55.8066 23.8076 55.8066 23.5342C55.8066 23.264 55.7822 23.0199 55.7334 22.8018C55.6846 22.5837 55.613 22.3997 55.5186 22.25C55.4274 22.097 55.3135 21.9798 55.1768 21.8984C55.04 21.8171 54.8838 21.7764 54.708 21.7764C54.555 21.7764 54.402 21.8105 54.249 21.8789C54.096 21.944 53.9495 22.0368 53.8096 22.1572C53.6729 22.2777 53.5443 22.4225 53.4238 22.5918C53.3034 22.7578 53.2025 22.9417 53.1211 23.1436V25.0967ZM61.6465 26C61.6237 25.9447 61.5993 25.8796 61.5732 25.8047C61.5472 25.7298 61.5212 25.6501 61.4951 25.5654C61.4723 25.4808 61.4495 25.3929 61.4268 25.3018C61.4072 25.2074 61.391 25.1146 61.3779 25.0234C61.0817 25.3848 60.7757 25.6582 60.46 25.8438C60.1475 26.0293 59.8187 26.1221 59.4736 26.1221C58.432 26.1221 57.9111 25.4222 57.9111 24.0225V22.582C57.9111 22.4258 57.9095 22.2842 57.9062 22.1572C57.9062 22.0303 57.903 21.9082 57.8965 21.791C57.89 21.6706 57.8802 21.5485 57.8672 21.4248C57.8542 21.3011 57.8363 21.166 57.8135 21.0195H58.8145V23.7295C58.8145 24.0062 58.8275 24.2454 58.8535 24.4473C58.8828 24.6458 58.93 24.8102 58.9951 24.9404C59.0602 25.0674 59.1449 25.1618 59.249 25.2236C59.3564 25.2855 59.4883 25.3164 59.6445 25.3164C59.7878 25.3164 59.9408 25.2741 60.1035 25.1895C60.2663 25.1016 60.4209 24.9909 60.5674 24.8574C60.7171 24.724 60.8522 24.5775 60.9727 24.418C61.0964 24.2552 61.1908 24.099 61.2559 23.9492V22.582C61.2559 22.4225 61.2542 22.2793 61.251 22.1523C61.251 22.0221 61.2477 21.8984 61.2412 21.7812C61.2347 21.6641 61.2249 21.5452 61.2119 21.4248C61.1989 21.3044 61.181 21.1693 61.1582 21.0195H62.1592V23.8027C62.1592 24.278 62.1852 24.6947 62.2373 25.0527C62.2926 25.4076 62.3724 25.7233 62.4766 26H61.6465ZM67.5596 26H66.6562V23.2168C66.6562 22.9141 66.6449 22.6699 66.6221 22.4844C66.5993 22.2956 66.5602 22.1491 66.5049 22.0449C66.4528 21.9375 66.3812 21.8659 66.29 21.8301C66.1989 21.7943 66.085 21.7764 65.9482 21.7764C65.8278 21.7764 65.7074 21.8008 65.5869 21.8496C65.4665 21.8984 65.3509 21.9684 65.2402 22.0596C65.1328 22.1475 65.0319 22.2533 64.9375 22.377C64.8464 22.4974 64.7682 22.6309 64.7031 22.7773V26H63.7998V22.9971C63.7998 22.5153 63.7721 22.1084 63.7168 21.7764C63.6615 21.4411 63.6077 21.1888 63.5557 21.0195H64.4346C64.4704 21.1237 64.5013 21.2474 64.5273 21.3906C64.5534 21.5306 64.5745 21.6592 64.5908 21.7764C64.7406 21.6038 64.8838 21.4622 65.0205 21.3516C65.1572 21.2409 65.2923 21.1546 65.4258 21.0928C65.5625 21.0277 65.6976 20.9837 65.8311 20.9609C65.9645 20.9349 66.1012 20.9219 66.2412 20.9219C66.4007 20.9219 66.5456 20.9447 66.6758 20.9902C66.806 21.0358 66.9199 21.096 67.0176 21.1709C67.1185 21.2458 67.2048 21.3337 67.2764 21.4346C67.348 21.5322 67.4033 21.6348 67.4424 21.7422C67.5954 21.5762 67.7435 21.4411 67.8867 21.3369C68.0299 21.2295 68.1699 21.1465 68.3066 21.0879C68.4434 21.026 68.5768 20.9837 68.707 20.9609C68.8405 20.9349 68.9707 20.9219 69.0977 20.9219C69.3451 20.9219 69.5534 20.9626 69.7227 21.0439C69.8919 21.1221 70.027 21.2393 70.1279 21.3955C70.2321 21.5518 70.3053 21.7454 70.3477 21.9766C70.3932 22.2077 70.416 22.4746 70.416 22.7773V26H69.5127V23.3145C69.5127 22.9987 69.5013 22.7415 69.4785 22.543C69.4557 22.3444 69.4167 22.1882 69.3613 22.0742C69.3092 21.9603 69.2376 21.8822 69.1465 21.8398C69.0553 21.7975 68.9414 21.7764 68.8047 21.7764C68.6842 21.7764 68.5654 21.8008 68.4482 21.8496C68.3311 21.8952 68.2171 21.9619 68.1064 22.0498C67.999 22.1344 67.8981 22.2386 67.8037 22.3623C67.7126 22.486 67.6312 22.6243 67.5596 22.7773V26Z" fill="#FBFBFB"/>
<path d="M26.6172 91.7324V92.9067C26.3633 92.8517 26.1115 92.8179 25.8618 92.8052C25.6164 92.7882 25.3498 92.7798 25.062 92.7798H23.5386V98.2388C23.5386 98.8651 23.5449 99.4194 23.5576 99.9019C23.5745 100.38 23.6105 100.746 23.6655 101H22.2056C22.2606 100.746 22.2944 100.38 22.3071 99.9019C22.3241 99.4194 22.3325 98.8651 22.3325 98.2388V92.7798H20.8408C20.5573 92.7798 20.2907 92.7882 20.041 92.8052C19.7913 92.8179 19.5396 92.8517 19.2856 92.9067V91.7324H26.6172ZM28.02 101V97.0962C28.02 96.4699 27.984 95.9409 27.9121 95.5093C27.8444 95.0734 27.7746 94.7454 27.7026 94.5254H28.8452C28.8706 94.5931 28.896 94.682 28.9214 94.792C28.9468 94.8978 28.9701 95.0099 28.9912 95.1284C29.0124 95.2469 29.0314 95.3633 29.0483 95.4775L29.0991 95.7632C29.2515 95.5431 29.4165 95.3485 29.5942 95.1792C29.7762 95.0099 29.9582 94.8682 30.1401 94.7539C30.3263 94.6354 30.5062 94.5465 30.6797 94.4873C30.8574 94.4281 31.0182 94.3984 31.1621 94.3984C31.4287 94.3984 31.653 94.4577 31.835 94.5762C32.0212 94.6904 32.1714 94.847 32.2856 95.0459C32.4041 95.2406 32.4888 95.467 32.5396 95.7251C32.5946 95.979 32.6221 96.2456 32.6221 96.5249L31.6064 96.7471C31.598 96.5778 31.5768 96.4212 31.543 96.2773C31.5133 96.1335 31.4689 96.0086 31.4097 95.9028C31.3547 95.797 31.2827 95.7166 31.1938 95.6616C31.1092 95.6024 31.0034 95.5728 30.8765 95.5728C30.741 95.5728 30.5908 95.6235 30.4258 95.7251C30.2607 95.8267 30.0978 95.96 29.937 96.125C29.7804 96.2858 29.6344 96.472 29.499 96.6836C29.3636 96.891 29.262 97.1025 29.1943 97.3184V101H28.02ZM37.9224 95.541C37.8166 95.5199 37.6621 95.4945 37.459 95.4648C37.2601 95.431 37.002 95.4141 36.6846 95.4141C36.2699 95.4141 35.9229 95.4987 35.6436 95.668C35.3685 95.833 35.1484 96.0552 34.9834 96.3345C34.8184 96.6095 34.6999 96.9269 34.6279 97.2866C34.5602 97.6463 34.5264 98.0166 34.5264 98.3975C34.5264 98.6429 34.5496 98.8693 34.5962 99.0767C34.647 99.2798 34.7147 99.4575 34.7993 99.6099C34.884 99.758 34.9813 99.8743 35.0913 99.959C35.2013 100.039 35.3198 100.08 35.4468 100.08C35.5864 100.08 35.7282 100.033 35.8721 99.9399C36.0202 99.8468 36.1641 99.722 36.3037 99.5654C36.4476 99.4046 36.5872 99.2205 36.7227 99.0132C36.8581 98.8058 36.985 98.5879 37.1035 98.3594C37.222 98.1266 37.332 97.8918 37.4336 97.6548C37.5352 97.4178 37.6219 97.1935 37.6938 96.9819C37.7658 96.7661 37.8208 96.5693 37.8589 96.3916C37.9012 96.2139 37.9224 96.0679 37.9224 95.9536V95.541ZM38.3984 101C38.3519 100.898 38.3096 100.746 38.2715 100.543C38.2376 100.34 38.208 100.122 38.1826 99.8892C38.1615 99.6522 38.1445 99.4215 38.1318 99.1973C38.1191 98.973 38.1128 98.791 38.1128 98.6514V98.0166C37.9774 98.3763 37.8145 98.7424 37.624 99.1147C37.4378 99.4871 37.2241 99.8257 36.9829 100.13C36.7417 100.431 36.4751 100.678 36.1831 100.873C35.8953 101.063 35.5864 101.159 35.2563 101.159C34.9897 101.159 34.7401 101.099 34.5073 100.981C34.2746 100.862 34.0715 100.687 33.8979 100.454C33.7287 100.221 33.5954 99.9336 33.498 99.5908C33.4007 99.2438 33.3521 98.846 33.3521 98.3975C33.3521 97.8939 33.4198 97.403 33.5552 96.9248C33.6906 96.4424 33.8979 96.015 34.1772 95.6426C34.4565 95.266 34.812 94.9655 35.2437 94.7412C35.6753 94.5127 36.1873 94.3984 36.7798 94.3984C37.1903 94.3984 37.5986 94.4259 38.0049 94.481C38.4111 94.5317 38.7751 94.5994 39.0967 94.6841V97.6357C39.0967 98.4355 39.1348 99.1084 39.2109 99.6543C39.2871 100.196 39.3866 100.645 39.5093 101H38.3984ZM46.6504 94.5254C46.5615 94.7074 46.4684 94.9041 46.3711 95.1157C46.278 95.3273 46.187 95.5347 46.0981 95.7378C46.0135 95.9409 45.9331 96.1335 45.8569 96.3154C45.7808 96.4974 45.7173 96.6519 45.6665 96.7788C45.6242 96.8804 45.5671 97.02 45.4951 97.1978C45.4274 97.3713 45.3491 97.568 45.2603 97.7881C45.1756 98.0039 45.0846 98.2345 44.9873 98.48C44.89 98.7212 44.7948 98.9603 44.7017 99.1973C44.4774 99.7559 44.2383 100.357 43.9844 101H42.7783C42.5329 100.386 42.3022 99.8066 42.0864 99.2607C41.9933 99.028 41.8981 98.791 41.8008 98.5498C41.7035 98.3086 41.6104 98.078 41.5215 97.8579C41.4368 97.6336 41.3564 97.4284 41.2803 97.2422C41.2083 97.056 41.147 96.9015 41.0962 96.7788C41.0454 96.6519 40.9819 96.4974 40.9058 96.3154C40.8296 96.1292 40.7471 95.9346 40.6582 95.7314C40.5693 95.5283 40.4784 95.3231 40.3853 95.1157C40.2922 94.9041 40.2012 94.7074 40.1123 94.5254H41.4453L43.3813 99.7305L45.3174 94.5254H46.6504ZM47.7612 92.4624C47.7612 92.3439 47.7803 92.2339 47.8184 92.1323C47.8564 92.0265 47.9093 91.9355 47.9771 91.8594C48.049 91.779 48.1336 91.7176 48.231 91.6753C48.3283 91.6287 48.4362 91.6055 48.5547 91.6055C48.6732 91.6055 48.7832 91.6287 48.8848 91.6753C48.9863 91.7176 49.0731 91.779 49.145 91.8594C49.217 91.9355 49.2741 92.0265 49.3164 92.1323C49.3587 92.2339 49.3799 92.3439 49.3799 92.4624C49.3799 92.5809 49.3587 92.693 49.3164 92.7988C49.2741 92.9004 49.217 92.9914 49.145 93.0718C49.0731 93.1479 48.9863 93.2093 48.8848 93.2559C48.7832 93.2982 48.6732 93.3193 48.5547 93.3193C48.4362 93.3193 48.3283 93.2982 48.231 93.2559C48.1336 93.2093 48.049 93.1479 47.9771 93.0718C47.9093 92.9914 47.8564 92.9004 47.8184 92.7988C47.7803 92.693 47.7612 92.5809 47.7612 92.4624ZM49.1577 97.9849C49.1577 98.188 49.1598 98.4292 49.1641 98.7085C49.1725 98.9836 49.181 99.2629 49.1895 99.5464C49.2021 99.8299 49.2148 100.101 49.2275 100.359C49.2445 100.617 49.2635 100.831 49.2847 101H47.9834V97.6357C47.9834 97.3268 47.9813 97.0221 47.9771 96.7217C47.9771 96.4212 47.9728 96.1377 47.9644 95.8711C47.9601 95.6003 47.9517 95.3506 47.939 95.1221C47.9263 94.8893 47.9093 94.6904 47.8882 94.5254H49.1577V97.9849ZM55.4482 96.0171C55.3424 95.9536 55.2218 95.888 55.0864 95.8203C54.951 95.7484 54.8029 95.6828 54.6421 95.6235C54.4855 95.5643 54.3162 95.5156 54.1343 95.4775C53.9565 95.4352 53.7703 95.4141 53.5757 95.4141C53.3429 95.4141 53.1462 95.4395 52.9854 95.4902C52.8288 95.541 52.7018 95.6066 52.6045 95.687C52.5114 95.7632 52.4437 95.8521 52.4014 95.9536C52.359 96.0509 52.3379 96.1462 52.3379 96.2393C52.3379 96.3493 52.3548 96.4466 52.3887 96.5312C52.4225 96.6159 52.4924 96.6942 52.5981 96.7661C52.7082 96.8381 52.8626 96.9079 53.0615 96.9756C53.2604 97.0433 53.527 97.1152 53.8613 97.1914C54.1491 97.2549 54.4199 97.3374 54.6738 97.439C54.9277 97.5363 55.1499 97.6611 55.3403 97.8135C55.5308 97.9658 55.681 98.1499 55.791 98.3657C55.901 98.5773 55.9561 98.8312 55.9561 99.1274C55.9561 99.4152 55.8926 99.6818 55.7656 99.9272C55.6387 100.173 55.4652 100.389 55.2451 100.575C55.0251 100.757 54.7669 100.898 54.4707 101C54.1745 101.106 53.855 101.159 53.5122 101.159C53.2541 101.159 53.0044 101.14 52.7632 101.102C52.5262 101.063 52.3019 101.011 52.0903 100.943C51.883 100.875 51.6925 100.797 51.519 100.708C51.3455 100.619 51.1953 100.526 51.0684 100.429L51.3857 99.2861C51.5296 99.4131 51.6904 99.5295 51.8682 99.6353C52.0501 99.741 52.2363 99.832 52.4268 99.9082C52.6172 99.9844 52.8076 100.044 52.998 100.086C53.1927 100.124 53.3747 100.143 53.5439 100.143C53.7301 100.143 53.8994 100.12 54.0518 100.073C54.2083 100.022 54.3416 99.959 54.4517 99.8828C54.5659 99.8024 54.6548 99.7114 54.7183 99.6099C54.7817 99.5041 54.8135 99.3962 54.8135 99.2861C54.8135 99.1676 54.7881 99.0576 54.7373 98.9561C54.6908 98.8503 54.6019 98.7508 54.4707 98.6577C54.3438 98.5604 54.166 98.4673 53.9375 98.3784C53.7132 98.2896 53.4233 98.2007 53.0679 98.1118C52.6828 98.0187 52.3675 97.9087 52.1221 97.7817C51.8809 97.6548 51.6904 97.5151 51.5508 97.3628C51.4154 97.2104 51.3223 97.0454 51.2715 96.8677C51.2207 96.6899 51.1953 96.5016 51.1953 96.3027C51.1953 96.2054 51.2101 96.0911 51.2397 95.96C51.2736 95.8288 51.3265 95.6934 51.3984 95.5537C51.4746 95.4098 51.5719 95.2702 51.6904 95.1348C51.8132 94.9951 51.9655 94.8724 52.1475 94.7666C52.3294 94.6566 52.5431 94.5677 52.7886 94.5C53.034 94.4323 53.3175 94.3984 53.6392 94.3984C53.8677 94.3984 54.0814 94.4132 54.2803 94.4429C54.4834 94.4725 54.6675 94.5127 54.8325 94.5635C55.0018 94.61 55.1562 94.665 55.2959 94.7285C55.4355 94.7878 55.5604 94.847 55.6704 94.9062L55.4482 96.0171ZM66.0869 93.3828C65.8584 93.2559 65.6468 93.1501 65.4521 93.0654C65.2617 92.9766 65.0755 92.9046 64.8936 92.8496C64.7116 92.7904 64.5296 92.748 64.3477 92.7227C64.1657 92.6973 63.9731 92.6846 63.77 92.6846C63.5161 92.6846 63.2834 92.7227 63.0718 92.7988C62.8644 92.875 62.6846 92.9766 62.5322 93.1035C62.3799 93.2305 62.2614 93.3765 62.1768 93.5415C62.0964 93.7065 62.0562 93.8758 62.0562 94.0493C62.0562 94.2228 62.0794 94.3815 62.126 94.5254C62.1768 94.665 62.2762 94.7983 62.4243 94.9253C62.5724 95.048 62.784 95.1707 63.0591 95.2935C63.3341 95.4119 63.6981 95.5368 64.1509 95.668C64.5698 95.7907 64.9401 95.9346 65.2617 96.0996C65.5876 96.2604 65.8605 96.4466 66.0806 96.6582C66.3006 96.8698 66.4678 97.111 66.582 97.3818C66.6963 97.6527 66.7534 97.9595 66.7534 98.3022C66.7534 98.7297 66.6688 99.119 66.4995 99.4702C66.3345 99.8172 66.106 100.118 65.814 100.372C65.5262 100.621 65.1898 100.816 64.8047 100.956C64.4196 101.091 64.0112 101.159 63.5796 101.159C63.2749 101.159 62.9766 101.138 62.6846 101.095C62.3968 101.053 62.1239 100.994 61.8657 100.917C61.6118 100.841 61.377 100.752 61.1611 100.651C60.9453 100.545 60.757 100.429 60.5962 100.302L60.8818 99.0005C61.305 99.3687 61.7409 99.6353 62.1895 99.8003C62.6423 99.9653 63.1056 100.048 63.5796 100.048C63.8335 100.048 64.0789 100.012 64.3159 99.9399C64.5529 99.868 64.7624 99.7643 64.9443 99.6289C65.1263 99.4893 65.2723 99.32 65.3823 99.1211C65.4924 98.918 65.5474 98.6873 65.5474 98.4292C65.5474 98.2642 65.5199 98.1076 65.4648 97.9595C65.4141 97.8071 65.3083 97.659 65.1475 97.5151C64.9867 97.3713 64.756 97.2295 64.4556 97.0898C64.1551 96.946 63.7573 96.8 63.2622 96.6519C62.7671 96.5037 62.363 96.3408 62.0498 96.1631C61.7367 95.9854 61.4912 95.7928 61.3135 95.5854C61.1357 95.3739 61.013 95.1496 60.9453 94.9126C60.8818 94.6714 60.8501 94.4154 60.8501 94.1445C60.8501 93.8737 60.9051 93.5881 61.0151 93.2876C61.1294 92.9871 61.3071 92.71 61.5483 92.4561C61.7896 92.2021 62.0985 91.9927 62.4751 91.8276C62.8517 91.6584 63.3045 91.5737 63.8335 91.5737C64.0789 91.5737 64.3075 91.5843 64.519 91.6055C64.7349 91.6266 64.9422 91.6605 65.1411 91.707C65.3442 91.7536 65.5431 91.8128 65.7378 91.8848C65.9325 91.9567 66.1335 92.0435 66.3408 92.145L66.0869 93.3828ZM73.3296 100.46C73.1688 100.583 73.008 100.689 72.8472 100.778C72.6906 100.862 72.5256 100.934 72.3521 100.994C72.1785 101.049 71.9924 101.089 71.7935 101.114C71.5946 101.144 71.3766 101.159 71.1396 101.159C70.7122 101.159 70.3123 101.085 69.9399 100.937C69.5675 100.784 69.2417 100.566 68.9624 100.283C68.6831 99.9992 68.4631 99.6564 68.3022 99.2544C68.1414 98.8524 68.061 98.3975 68.061 97.8896C68.061 97.4115 68.1372 96.9608 68.2896 96.5376C68.4461 96.1144 68.6662 95.7441 68.9497 95.4268C69.2375 95.1094 69.5845 94.8597 69.9907 94.6777C70.4012 94.4915 70.8582 94.3984 71.3618 94.3984C71.785 94.3984 72.1489 94.4492 72.4536 94.5508C72.7625 94.6481 73.0334 94.7772 73.2661 94.938L73.0439 96.0806C72.7562 95.869 72.4705 95.7103 72.187 95.6045C71.9035 95.4987 71.5967 95.4458 71.2666 95.4458C70.9831 95.4458 70.7186 95.5008 70.4731 95.6108C70.2319 95.7166 70.0203 95.8711 69.8384 96.0742C69.6606 96.2773 69.521 96.527 69.4194 96.8232C69.3179 97.1195 69.2671 97.4538 69.2671 97.8262C69.2671 98.1689 69.3136 98.48 69.4067 98.7593C69.4998 99.0386 69.6331 99.2798 69.8066 99.4829C69.9801 99.6818 70.1896 99.8363 70.4351 99.9463C70.6805 100.056 70.9577 100.111 71.2666 100.111C71.6517 100.111 72.0008 100.046 72.314 99.9146C72.6271 99.7834 72.9233 99.5951 73.2026 99.3496L73.3296 100.46ZM75.71 97.7944C75.71 98.1626 75.7544 98.4927 75.8433 98.7847C75.9321 99.0767 76.057 99.3242 76.2178 99.5273C76.3828 99.7262 76.5775 99.8786 76.8018 99.9844C77.026 100.09 77.2757 100.143 77.5508 100.143C77.8047 100.143 78.0438 100.09 78.2681 99.9844C78.4924 99.8786 78.687 99.7262 78.8521 99.5273C79.0213 99.3242 79.1525 99.0767 79.2456 98.7847C79.3429 98.4927 79.3916 98.1626 79.3916 97.7944C79.3916 97.422 79.3472 97.0898 79.2583 96.7979C79.1694 96.5016 79.0425 96.252 78.8774 96.0488C78.7166 95.8415 78.522 95.6849 78.2935 95.5791C78.0692 95.4691 77.8216 95.4141 77.5508 95.4141C77.2926 95.4141 77.0514 95.4691 76.8271 95.5791C76.6029 95.6849 76.4082 95.8415 76.2432 96.0488C76.0781 96.252 75.9469 96.5016 75.8496 96.7979C75.7565 97.0898 75.71 97.422 75.71 97.7944ZM74.5356 97.7944C74.5356 97.2485 74.6182 96.7661 74.7832 96.3472C74.9482 95.924 75.1704 95.5685 75.4497 95.2808C75.729 94.9888 76.0549 94.7687 76.4272 94.6206C76.7996 94.4725 77.1953 94.3984 77.6143 94.3984C78.0501 94.3984 78.4479 94.4725 78.8076 94.6206C79.1715 94.7687 79.4826 94.9888 79.7407 95.2808C80.0031 95.5685 80.2062 95.924 80.3501 96.3472C80.494 96.7661 80.5659 97.2485 80.5659 97.7944C80.5659 98.3403 80.4834 98.8228 80.3184 99.2417C80.1533 99.6606 79.9312 100.012 79.6519 100.295C79.3726 100.579 79.0467 100.795 78.6743 100.943C78.3019 101.087 77.9062 101.159 77.4873 101.159C77.0514 101.159 76.6515 101.087 76.2876 100.943C75.9279 100.795 75.6169 100.579 75.3545 100.295C75.0964 100.012 74.8953 99.6606 74.7515 99.2417C74.6076 98.8228 74.5356 98.3403 74.5356 97.7944ZM81.3594 94.6841H82.6289V92.6211H83.8032V94.6841H85.8662V95.6045H83.8032V98.5244C83.8032 98.8503 83.818 99.1169 83.8477 99.3242C83.8815 99.5316 83.9302 99.6945 83.9937 99.813C84.0614 99.9272 84.146 100.006 84.2476 100.048C84.3491 100.09 84.4718 100.111 84.6157 100.111C84.7977 100.111 85.0029 100.071 85.2314 99.9907C85.46 99.9103 85.7139 99.7918 85.9932 99.6353V100.651C85.7012 100.841 85.4219 100.972 85.1553 101.044C84.8887 101.121 84.6432 101.159 84.4189 101.159C84.1693 101.159 83.9365 101.129 83.7207 101.07C83.5049 101.015 83.3145 100.915 83.1494 100.771C82.9886 100.628 82.8617 100.437 82.7686 100.2C82.6755 99.959 82.6289 99.6543 82.6289 99.2861V95.6045H81.3594V94.6841ZM86.666 94.6841H87.9355V92.6211H89.1099V94.6841H91.1729V95.6045H89.1099V98.5244C89.1099 98.8503 89.1247 99.1169 89.1543 99.3242C89.1882 99.5316 89.2368 99.6945 89.3003 99.813C89.368 99.9272 89.4526 100.006 89.5542 100.048C89.6558 100.09 89.7785 100.111 89.9224 100.111C90.1043 100.111 90.3096 100.071 90.5381 99.9907C90.7666 99.9103 91.0205 99.7918 91.2998 99.6353V100.651C91.0078 100.841 90.7285 100.972 90.4619 101.044C90.1953 101.121 89.9499 101.159 89.7256 101.159C89.4759 101.159 89.2432 101.129 89.0273 101.07C88.8115 101.015 88.6211 100.915 88.4561 100.771C88.2952 100.628 88.1683 100.437 88.0752 100.2C87.9821 99.959 87.9355 99.6543 87.9355 99.2861V95.6045H86.666V94.6841Z" fill="#FBFBFB"/>
<path d="M21.4585 49.4551L25.123 55.5874L28.6021 49.4551H30.7358C30.4637 49.8447 30.2225 50.2004 30.0122 50.522C29.8019 50.8374 29.6071 51.1374 29.4277 51.4219C29.2546 51.7064 29.0845 51.9847 28.9175 52.2568C28.7567 52.529 28.5897 52.8166 28.4165 53.1196L25.9116 57.4058V58.9644C25.9116 59.8797 25.9178 60.6899 25.9302 61.395C25.9425 62.0939 25.9827 62.6289 26.0508 63H24.0098C24.0778 62.6289 24.118 62.0939 24.1304 61.395C24.1427 60.6899 24.1489 59.8797 24.1489 58.9644V57.3315L21.6904 53.1196C21.5111 52.8166 21.3348 52.5197 21.1616 52.229C20.9946 51.9383 20.8184 51.6445 20.6328 51.3477C20.4473 51.0508 20.2463 50.7477 20.0298 50.4385C19.8195 50.1292 19.5845 49.8014 19.3247 49.4551H21.4585ZM33.8438 58.3149C33.8438 58.853 33.9087 59.3354 34.0386 59.7622C34.1685 60.189 34.3509 60.5508 34.5859 60.8477C34.8271 61.1383 35.1117 61.361 35.4395 61.5156C35.7673 61.6702 36.1322 61.7476 36.5342 61.7476C36.9053 61.7476 37.2547 61.6702 37.5825 61.5156C37.9103 61.361 38.1948 61.1383 38.436 60.8477C38.6834 60.5508 38.8752 60.189 39.0112 59.7622C39.1535 59.3354 39.2246 58.853 39.2246 58.3149C39.2246 57.7707 39.1597 57.2852 39.0298 56.8584C38.8999 56.4255 38.7144 56.0605 38.4731 55.7637C38.2381 55.4606 37.9536 55.2318 37.6196 55.0771C37.2918 54.9163 36.93 54.8359 36.5342 54.8359C36.1569 54.8359 35.8044 54.9163 35.4766 55.0771C35.1488 55.2318 34.8643 55.4606 34.623 55.7637C34.3818 56.0605 34.1901 56.4255 34.0479 56.8584C33.9118 57.2852 33.8438 57.7707 33.8438 58.3149ZM32.1274 58.3149C32.1274 57.5171 32.248 56.812 32.4893 56.1997C32.7305 55.5812 33.0552 55.0617 33.4634 54.6411C33.8716 54.2144 34.3478 53.8927 34.8921 53.6763C35.4364 53.4598 36.0146 53.3516 36.627 53.3516C37.264 53.3516 37.8454 53.4598 38.3711 53.6763C38.903 53.8927 39.3576 54.2144 39.7349 54.6411C40.1183 55.0617 40.4152 55.5812 40.6255 56.1997C40.8358 56.812 40.9409 57.5171 40.9409 58.3149C40.9409 59.1128 40.8203 59.8179 40.5791 60.4302C40.3379 61.0425 40.0132 61.5558 39.605 61.9702C39.1968 62.3846 38.7205 62.7 38.1763 62.9165C37.632 63.1268 37.0537 63.2319 36.4414 63.2319C35.8044 63.2319 35.2199 63.1268 34.688 62.9165C34.1623 62.7 33.7077 62.3846 33.3242 61.9702C32.9469 61.5558 32.6532 61.0425 32.4429 60.4302C32.2326 59.8179 32.1274 59.1128 32.1274 58.3149ZM50.3574 63C50.3141 62.8949 50.2677 62.7712 50.2183 62.6289C50.1688 62.4867 50.1193 62.3351 50.0698 62.1743C50.0265 62.0135 49.9832 61.8465 49.9399 61.6733C49.9028 61.494 49.8719 61.3177 49.8472 61.1445C49.2843 61.8311 48.703 62.3506 48.103 62.7031C47.5093 63.0557 46.8846 63.2319 46.229 63.2319C44.2498 63.2319 43.2603 61.9022 43.2603 59.2427V56.5059C43.2603 56.209 43.2572 55.9399 43.251 55.6987C43.251 55.4575 43.2448 55.2256 43.2324 55.0029C43.2201 54.7741 43.2015 54.5422 43.1768 54.3071C43.152 54.0721 43.118 53.8154 43.0747 53.5371H44.9766V58.686C44.9766 59.2118 45.0013 59.6663 45.0508 60.0498C45.1064 60.4271 45.1961 60.7394 45.3198 60.9868C45.4435 61.228 45.6043 61.4074 45.8022 61.5249C46.0063 61.6424 46.2568 61.7012 46.5537 61.7012C46.8258 61.7012 47.1165 61.6208 47.4258 61.46C47.735 61.293 48.0288 61.0827 48.3071 60.8291C48.5916 60.5755 48.8483 60.2972 49.0771 59.9941C49.3122 59.6849 49.4915 59.388 49.6152 59.1035V56.5059C49.6152 56.2028 49.6121 55.9307 49.606 55.6895C49.606 55.4421 49.5998 55.207 49.5874 54.9844C49.575 54.7617 49.5565 54.536 49.5317 54.3071C49.507 54.0783 49.473 53.8216 49.4297 53.5371H51.3315V58.8252C51.3315 59.7282 51.381 60.5199 51.48 61.2002C51.5851 61.8743 51.7367 62.4743 51.9346 63H50.3574ZM69.3389 61.7012C69.0667 61.9548 68.7482 62.1774 68.3833 62.3691C68.0184 62.5547 67.6349 62.7124 67.2329 62.8423C66.8371 62.9722 66.4351 63.068 66.0269 63.1299C65.6187 63.1979 65.2383 63.2319 64.8857 63.2319C63.9456 63.2319 63.1014 63.0742 62.353 62.7588C61.6047 62.4372 60.9676 61.9826 60.4419 61.395C59.9162 60.8013 59.5111 60.0838 59.2266 59.2427C58.9482 58.4015 58.8091 57.4583 58.8091 56.4131C58.8091 55.2194 58.9823 54.1742 59.3286 53.2773C59.675 52.3743 60.1357 51.6229 60.7109 51.0229C61.2923 50.423 61.9603 49.9746 62.7148 49.6777C63.4694 49.3747 64.2549 49.2231 65.0713 49.2231C65.4053 49.2231 65.7454 49.2448 66.0918 49.2881C66.4382 49.3314 66.7845 49.4025 67.1309 49.5015C67.4834 49.6004 67.8328 49.7334 68.1792 49.9004C68.5256 50.0674 68.8657 50.2746 69.1997 50.522L68.6431 52.1919C68.3524 51.9321 68.0555 51.7126 67.7524 51.5332C67.4494 51.3538 67.1463 51.2116 66.8433 51.1064C66.5402 50.9951 66.2371 50.9178 65.9341 50.8745C65.6372 50.825 65.3496 50.8003 65.0713 50.8003C64.4219 50.8003 63.825 50.9147 63.2808 51.1436C62.7365 51.3662 62.2664 51.7033 61.8706 52.1548C61.481 52.6063 61.1748 53.1691 60.9521 53.8433C60.7295 54.5112 60.6182 55.2905 60.6182 56.1812C60.6182 57.0161 60.7264 57.7676 60.9429 58.4355C61.1655 59.1035 61.4686 59.6725 61.8521 60.1426C62.2417 60.6126 62.7025 60.9744 63.2344 61.228C63.7663 61.4816 64.3477 61.6084 64.9785 61.6084C65.3311 61.6084 65.6867 61.5682 66.0454 61.4878C66.4103 61.4074 66.766 61.293 67.1123 61.1445C67.4587 60.9899 67.7896 60.8075 68.105 60.5972C68.4204 60.3869 68.708 60.1519 68.9678 59.8921L69.3389 61.7012ZM78.1616 55.0215C78.007 54.9906 77.7812 54.9535 77.4844 54.9102C77.1937 54.8607 76.8164 54.8359 76.3525 54.8359C75.7464 54.8359 75.2393 54.9596 74.8311 55.207C74.429 55.4482 74.1074 55.7729 73.8662 56.1812C73.625 56.5832 73.4518 57.047 73.3467 57.5728C73.2477 58.0985 73.1982 58.6396 73.1982 59.1963C73.1982 59.555 73.2323 59.8859 73.3003 60.189C73.3745 60.4858 73.4735 60.7456 73.5972 60.9683C73.7209 61.1847 73.8631 61.3548 74.0239 61.4785C74.1847 61.596 74.3579 61.6548 74.5435 61.6548C74.7476 61.6548 74.9548 61.5868 75.165 61.4507C75.3815 61.3146 75.5918 61.1322 75.7959 60.9033C76.0062 60.6683 76.2103 60.3993 76.4082 60.0962C76.6061 59.7931 76.7917 59.4746 76.9648 59.1406C77.138 58.8005 77.2988 58.4572 77.4473 58.1108C77.5957 57.7645 77.7225 57.4367 77.8276 57.1274C77.9328 56.812 78.0132 56.5244 78.0688 56.2646C78.1307 56.0049 78.1616 55.7915 78.1616 55.6245V55.0215ZM78.8574 63C78.7894 62.8516 78.7275 62.6289 78.6719 62.332C78.6224 62.0352 78.5791 61.7166 78.542 61.3765C78.5111 61.0301 78.4863 60.693 78.4678 60.3652C78.4492 60.0374 78.4399 59.7715 78.4399 59.5674V58.6396C78.242 59.1654 78.0039 59.7004 77.7256 60.2446C77.4535 60.7889 77.1411 61.2837 76.7886 61.729C76.436 62.1681 76.0464 62.5299 75.6196 62.8145C75.1991 63.0928 74.7476 63.2319 74.2651 63.2319C73.8755 63.2319 73.5106 63.1453 73.1704 62.9722C72.8302 62.799 72.5334 62.5423 72.2798 62.2021C72.0324 61.862 71.8376 61.4414 71.6953 60.9404C71.5531 60.4333 71.4819 59.8519 71.4819 59.1963C71.4819 58.4603 71.5809 57.7428 71.7788 57.0439C71.9767 56.3389 72.2798 55.7142 72.688 55.1699C73.0962 54.6195 73.6157 54.1803 74.2466 53.8525C74.8774 53.5186 75.6258 53.3516 76.4917 53.3516C77.0916 53.3516 77.6885 53.3918 78.2822 53.4722C78.876 53.5464 79.4079 53.6453 79.8779 53.769V58.083C79.8779 59.252 79.9336 60.2354 80.0449 61.0332C80.1562 61.8249 80.3016 62.4805 80.481 63H78.8574ZM89.2017 63V57.8975C89.2017 57.3161 89.1615 56.8368 89.0811 56.4595C89.0068 56.0822 88.8924 55.7853 88.7378 55.5688C88.5894 55.3462 88.3976 55.1916 88.1626 55.105C87.9338 55.0184 87.6616 54.9751 87.3462 54.9751C87.0122 54.9751 86.6844 55.0555 86.3628 55.2163C86.0474 55.3709 85.7567 55.575 85.4907 55.8286C85.2248 56.076 84.9897 56.3574 84.7856 56.6729C84.5815 56.9883 84.43 57.3037 84.3311 57.6191V63H82.6147V57.2944C82.6147 56.3791 82.5622 55.606 82.457 54.9751C82.3581 54.3381 82.256 53.8587 82.1509 53.5371H83.8208C83.8579 53.6361 83.895 53.766 83.9321 53.9268C83.9692 54.0814 84.0033 54.2453 84.0342 54.4185C84.0651 54.5916 84.0929 54.7617 84.1177 54.9287L84.1919 55.3462C84.7795 54.6411 85.3732 54.134 85.9731 53.8247C86.5731 53.5093 87.2008 53.3516 87.8564 53.3516C88.846 53.3516 89.6037 53.6763 90.1294 54.3257C90.6551 54.9689 90.918 55.9276 90.918 57.2017V63H89.2017ZM93.7104 49.2231C93.7414 49.0747 93.797 48.9448 93.8774 48.8335C93.964 48.716 94.0661 48.6201 94.1836 48.5459C94.3011 48.4655 94.4279 48.4036 94.564 48.3604C94.7 48.3171 94.833 48.2954 94.9629 48.2954C95.1484 48.2954 95.3216 48.3325 95.4824 48.4067C95.6494 48.4748 95.7917 48.5768 95.9092 48.7129C96.0329 48.8428 96.1287 49.0036 96.1968 49.1953C96.271 49.3809 96.3081 49.5911 96.3081 49.8262C96.3081 50.3952 96.172 50.958 95.8999 51.5146C95.634 52.0713 95.2288 52.6063 94.6846 53.1196L93.7568 52.7485C93.8929 52.6125 94.0321 52.4455 94.1743 52.2476C94.3228 52.0496 94.4588 51.8363 94.5825 51.6074C94.7062 51.3724 94.8083 51.1312 94.8887 50.8838C94.9691 50.6302 95.0093 50.3859 95.0093 50.1509H93.7104V49.2231ZM97.5234 53.769H99.3789V50.7539H101.095V53.769H104.11V55.1143H101.095V59.3818C101.095 59.8581 101.117 60.2477 101.16 60.5508C101.21 60.8538 101.281 61.092 101.374 61.2651C101.472 61.4321 101.596 61.5465 101.745 61.6084C101.893 61.6702 102.072 61.7012 102.283 61.7012C102.549 61.7012 102.849 61.6424 103.183 61.5249C103.517 61.4074 103.888 61.2342 104.296 61.0054V62.4897C103.869 62.7681 103.461 62.9598 103.071 63.0649C102.682 63.1763 102.323 63.2319 101.995 63.2319C101.63 63.2319 101.29 63.1886 100.975 63.1021C100.659 63.0216 100.381 62.8763 100.14 62.666C99.9046 62.4557 99.7191 62.1774 99.583 61.8311C99.4469 61.4785 99.3789 61.0332 99.3789 60.4951V55.1143H97.5234V53.769ZM111.727 60.1147V52.396C111.727 51.9631 111.721 51.561 111.708 51.1899C111.702 50.8127 111.69 50.4756 111.671 50.1787C111.653 49.8818 111.625 49.6406 111.588 49.4551C111.792 49.4427 112.046 49.4303 112.349 49.418C112.652 49.4056 112.983 49.3963 113.341 49.3901C113.706 49.3778 114.087 49.3716 114.482 49.3716C114.884 49.3654 115.28 49.3623 115.67 49.3623C116.356 49.3623 116.969 49.418 117.507 49.5293C118.045 49.6406 118.496 49.8231 118.861 50.0767C119.226 50.3302 119.505 50.6642 119.696 51.0786C119.888 51.493 119.984 52.0033 119.984 52.6094C119.984 52.999 119.925 53.3516 119.808 53.667C119.69 53.9762 119.526 54.2546 119.316 54.502C119.112 54.7432 118.871 54.9535 118.592 55.1328C118.32 55.3122 118.026 55.4606 117.711 55.5781C118.07 55.6709 118.425 55.8008 118.778 55.9678C119.13 56.1286 119.446 56.3451 119.724 56.6172C120.009 56.8893 120.237 57.2295 120.411 57.6377C120.59 58.0397 120.68 58.5283 120.68 59.1035C120.68 59.6663 120.587 60.1921 120.401 60.6807C120.222 61.1631 119.931 61.5837 119.529 61.9424C119.133 62.3011 118.62 62.5825 117.989 62.7866C117.365 62.9907 116.607 63.0928 115.716 63.0928C115.246 63.0928 114.789 63.0897 114.343 63.0835C113.904 63.0773 113.499 63.068 113.128 63.0557C112.763 63.0495 112.444 63.0402 112.172 63.0278C111.906 63.0216 111.712 63.0124 111.588 63C111.625 62.8145 111.653 62.5763 111.671 62.2856C111.69 61.995 111.702 61.6672 111.708 61.3022C111.721 60.9373 111.727 60.5415 111.727 60.1147ZM113.49 61.562C113.576 61.5682 113.694 61.5744 113.842 61.5806C113.991 61.5868 114.164 61.5929 114.362 61.5991C114.56 61.5991 114.776 61.6022 115.011 61.6084C115.252 61.6084 115.503 61.6084 115.763 61.6084C116.159 61.6084 116.542 61.5682 116.913 61.4878C117.29 61.4074 117.621 61.2713 117.906 61.0796C118.196 60.8879 118.428 60.6312 118.602 60.3096C118.781 59.988 118.871 59.5859 118.871 59.1035C118.871 58.2438 118.608 57.5975 118.082 57.1646C117.562 56.7254 116.758 56.5059 115.67 56.5059H113.49V61.562ZM113.49 55.0679H115.299C115.794 55.0679 116.22 55.0153 116.579 54.9102C116.944 54.805 117.244 54.6566 117.479 54.4648C117.714 54.2731 117.887 54.0443 117.999 53.7783C118.116 53.5062 118.175 53.2093 118.175 52.8877C118.175 52.5413 118.125 52.2383 118.026 51.9785C117.934 51.7188 117.782 51.5023 117.572 51.3291C117.368 51.1497 117.099 51.0168 116.765 50.9302C116.437 50.8436 116.041 50.8003 115.577 50.8003C115.398 50.8003 115.206 50.8034 115.002 50.8096C114.798 50.8096 114.6 50.8127 114.408 50.8188C114.216 50.825 114.04 50.8312 113.879 50.8374C113.719 50.8374 113.589 50.8405 113.49 50.8467V55.0679ZM130.569 63C130.526 62.8949 130.48 62.7712 130.43 62.6289C130.381 62.4867 130.331 62.3351 130.282 62.1743C130.238 62.0135 130.195 61.8465 130.152 61.6733C130.115 61.494 130.084 61.3177 130.059 61.1445C129.496 61.8311 128.915 62.3506 128.315 62.7031C127.721 63.0557 127.097 63.2319 126.441 63.2319C124.462 63.2319 123.472 61.9022 123.472 59.2427V56.5059C123.472 56.209 123.469 55.9399 123.463 55.6987C123.463 55.4575 123.457 55.2256 123.444 55.0029C123.432 54.7741 123.413 54.5422 123.389 54.3071C123.364 54.0721 123.33 53.8154 123.287 53.5371H125.188V58.686C125.188 59.2118 125.213 59.6663 125.263 60.0498C125.318 60.4271 125.408 60.7394 125.532 60.9868C125.655 61.228 125.816 61.4074 126.014 61.5249C126.218 61.6424 126.469 61.7012 126.766 61.7012C127.038 61.7012 127.328 61.6208 127.638 61.46C127.947 61.293 128.241 61.0827 128.519 60.8291C128.804 60.5755 129.06 60.2972 129.289 59.9941C129.524 59.6849 129.703 59.388 129.827 59.1035V56.5059C129.827 56.2028 129.824 55.9307 129.818 55.6895C129.818 55.4421 129.812 55.207 129.799 54.9844C129.787 54.7617 129.768 54.536 129.744 54.3071C129.719 54.0783 129.685 53.8216 129.642 53.5371H131.543V58.8252C131.543 59.7282 131.593 60.5199 131.692 61.2002C131.797 61.8743 131.949 62.4743 132.146 63H130.569ZM139.114 63C138.792 63.8906 138.477 64.6174 138.167 65.1802C137.858 65.743 137.543 66.1852 137.221 66.5068C136.906 66.8346 136.575 67.0573 136.229 67.1748C135.888 67.2985 135.52 67.3604 135.125 67.3604C134.698 67.3604 134.296 67.2923 133.918 67.1562C133.547 67.0202 133.192 66.8254 132.852 66.5718L133.408 65.0874C133.507 65.1678 133.622 65.2482 133.751 65.3286C133.888 65.4152 134.03 65.4894 134.178 65.5513C134.333 65.6193 134.491 65.675 134.651 65.7183C134.812 65.7616 134.97 65.7832 135.125 65.7832C135.31 65.7832 135.493 65.7492 135.672 65.6812C135.851 65.6193 136.031 65.4956 136.21 65.3101C136.396 65.1307 136.584 64.874 136.776 64.54C136.968 64.2122 137.172 63.7793 137.388 63.2412L134.8 56.8306C134.627 56.41 134.426 55.9368 134.197 55.4111C133.968 54.8854 133.674 54.2607 133.315 53.5371H135.171L138.167 61.1167C138.285 60.7827 138.412 60.4209 138.548 60.0312C138.69 59.6354 138.835 59.2303 138.984 58.8159C139.132 58.3953 139.281 57.9748 139.429 57.5542C139.578 57.1274 139.72 56.7192 139.856 56.3296C140.178 55.4142 140.502 54.4834 140.83 53.5371H142.686C142.525 53.8958 142.379 54.2298 142.25 54.5391C142.12 54.8421 141.999 55.1297 141.888 55.4019C141.776 55.6678 141.674 55.9183 141.582 56.1533C141.495 56.3883 141.415 56.6141 141.34 56.8306L139.114 63ZM160.127 49.4551C160.04 49.6468 159.954 49.8478 159.867 50.0581C159.781 50.2622 159.685 50.4972 159.58 50.7632C159.481 51.0229 159.369 51.3229 159.246 51.6631C159.122 51.9971 158.983 52.3898 158.828 52.8413L155.256 63H153.169L149.551 52.8413C149.39 52.396 149.248 52.0063 149.124 51.6724C149.007 51.3322 148.898 51.0291 148.799 50.7632C148.7 50.4972 148.611 50.2622 148.53 50.0581C148.45 49.8478 148.373 49.6468 148.298 49.4551H150.293L154.208 61.1909L158.132 49.4551H160.127ZM162.084 50.522C162.084 50.3488 162.112 50.188 162.168 50.0396C162.224 49.8849 162.301 49.752 162.4 49.6406C162.505 49.5231 162.629 49.4334 162.771 49.3716C162.913 49.3035 163.071 49.2695 163.244 49.2695C163.417 49.2695 163.578 49.3035 163.727 49.3716C163.875 49.4334 164.002 49.5231 164.107 49.6406C164.212 49.752 164.296 49.8849 164.357 50.0396C164.419 50.188 164.45 50.3488 164.45 50.522C164.45 50.6951 164.419 50.859 164.357 51.0137C164.296 51.1621 164.212 51.2951 164.107 51.4126C164.002 51.5239 163.875 51.6136 163.727 51.6816C163.578 51.7435 163.417 51.7744 163.244 51.7744C163.071 51.7744 162.913 51.7435 162.771 51.6816C162.629 51.6136 162.505 51.5239 162.4 51.4126C162.301 51.2951 162.224 51.1621 162.168 51.0137C162.112 50.859 162.084 50.6951 162.084 50.522ZM164.125 58.5933C164.125 58.8901 164.129 59.2427 164.135 59.6509C164.147 60.0529 164.16 60.4611 164.172 60.8755C164.19 61.2899 164.209 61.6857 164.228 62.063C164.252 62.4403 164.28 62.7526 164.311 63H162.409V58.083C162.409 57.6315 162.406 57.1862 162.4 56.7471C162.4 56.3079 162.394 55.8936 162.381 55.5039C162.375 55.1081 162.363 54.7432 162.344 54.4092C162.326 54.069 162.301 53.7783 162.27 53.5371H164.125V58.5933ZM173.319 55.7173C173.165 55.6245 172.988 55.5286 172.791 55.4297C172.593 55.3245 172.376 55.2287 172.141 55.1421C171.912 55.0555 171.665 54.9844 171.399 54.9287C171.139 54.8669 170.867 54.8359 170.583 54.8359C170.242 54.8359 169.955 54.873 169.72 54.9473C169.491 55.0215 169.305 55.1174 169.163 55.2349C169.027 55.3462 168.928 55.4761 168.866 55.6245C168.804 55.7668 168.773 55.9059 168.773 56.042C168.773 56.2028 168.798 56.3451 168.848 56.4688C168.897 56.5924 168.999 56.7069 169.154 56.812C169.315 56.9172 169.54 57.0192 169.831 57.1182C170.122 57.2171 170.511 57.3223 171 57.4336C171.421 57.5264 171.816 57.647 172.188 57.7954C172.559 57.9377 172.883 58.1201 173.162 58.3428C173.44 58.5654 173.66 58.8345 173.82 59.1499C173.981 59.4591 174.062 59.8302 174.062 60.2632C174.062 60.6838 173.969 61.0734 173.783 61.4321C173.598 61.7909 173.344 62.1063 173.022 62.3784C172.701 62.6444 172.324 62.8516 171.891 63C171.458 63.1546 170.991 63.2319 170.49 63.2319C170.112 63.2319 169.748 63.2041 169.395 63.1484C169.049 63.0928 168.721 63.0155 168.412 62.9165C168.109 62.8175 167.83 62.7031 167.577 62.5732C167.323 62.4434 167.104 62.3073 166.918 62.165L167.382 60.4951C167.592 60.6807 167.827 60.8507 168.087 61.0054C168.353 61.16 168.625 61.293 168.903 61.4043C169.182 61.5156 169.46 61.6022 169.738 61.6641C170.023 61.7197 170.289 61.7476 170.536 61.7476C170.808 61.7476 171.056 61.7135 171.278 61.6455C171.507 61.5713 171.702 61.4785 171.863 61.3672C172.03 61.2497 172.16 61.1167 172.252 60.9683C172.345 60.8136 172.392 60.6559 172.392 60.4951C172.392 60.3219 172.354 60.1611 172.28 60.0127C172.212 59.8581 172.082 59.7127 171.891 59.5767C171.705 59.4344 171.445 59.2983 171.111 59.1685C170.784 59.0386 170.36 58.9087 169.84 58.7788C169.278 58.6427 168.817 58.4819 168.458 58.2964C168.105 58.1108 167.827 57.9067 167.623 57.6841C167.425 57.4614 167.289 57.2202 167.215 56.9604C167.141 56.7007 167.104 56.4255 167.104 56.1348C167.104 55.9925 167.125 55.8255 167.168 55.6338C167.218 55.4421 167.295 55.2441 167.4 55.04C167.512 54.8298 167.654 54.6257 167.827 54.4277C168.007 54.2236 168.229 54.0443 168.495 53.8896C168.761 53.7288 169.073 53.599 169.432 53.5C169.791 53.401 170.205 53.3516 170.675 53.3516C171.009 53.3516 171.322 53.3732 171.612 53.4165C171.909 53.4598 172.178 53.5186 172.419 53.5928C172.667 53.6608 172.893 53.7412 173.097 53.834C173.301 53.9206 173.483 54.0072 173.644 54.0938L173.319 55.7173ZM176.297 50.522C176.297 50.3488 176.325 50.188 176.381 50.0396C176.437 49.8849 176.514 49.752 176.613 49.6406C176.718 49.5231 176.842 49.4334 176.984 49.3716C177.126 49.3035 177.284 49.2695 177.457 49.2695C177.63 49.2695 177.791 49.3035 177.939 49.3716C178.088 49.4334 178.215 49.5231 178.32 49.6406C178.425 49.752 178.508 49.8849 178.57 50.0396C178.632 50.188 178.663 50.3488 178.663 50.522C178.663 50.6951 178.632 50.859 178.57 51.0137C178.508 51.1621 178.425 51.2951 178.32 51.4126C178.215 51.5239 178.088 51.6136 177.939 51.6816C177.791 51.7435 177.63 51.7744 177.457 51.7744C177.284 51.7744 177.126 51.7435 176.984 51.6816C176.842 51.6136 176.718 51.5239 176.613 51.4126C176.514 51.2951 176.437 51.1621 176.381 51.0137C176.325 50.859 176.297 50.6951 176.297 50.522ZM178.338 58.5933C178.338 58.8901 178.341 59.2427 178.348 59.6509C178.36 60.0529 178.372 60.4611 178.385 60.8755C178.403 61.2899 178.422 61.6857 178.44 62.063C178.465 62.4403 178.493 62.7526 178.524 63H176.622V58.083C176.622 57.6315 176.619 57.1862 176.613 56.7471C176.613 56.3079 176.607 55.8936 176.594 55.5039C176.588 55.1081 176.576 54.7432 176.557 54.4092C176.539 54.069 176.514 53.7783 176.483 53.5371H178.338V58.5933ZM182.708 58.3149C182.708 58.853 182.773 59.3354 182.903 59.7622C183.033 60.189 183.215 60.5508 183.45 60.8477C183.691 61.1383 183.976 61.361 184.304 61.5156C184.632 61.6702 184.996 61.7476 185.398 61.7476C185.77 61.7476 186.119 61.6702 186.447 61.5156C186.775 61.361 187.059 61.1383 187.3 60.8477C187.548 60.5508 187.739 60.189 187.875 59.7622C188.018 59.3354 188.089 58.853 188.089 58.3149C188.089 57.7707 188.024 57.2852 187.894 56.8584C187.764 56.4255 187.579 56.0605 187.337 55.7637C187.102 55.4606 186.818 55.2318 186.484 55.0771C186.156 54.9163 185.794 54.8359 185.398 54.8359C185.021 54.8359 184.669 54.9163 184.341 55.0771C184.013 55.2318 183.729 55.4606 183.487 55.7637C183.246 56.0605 183.054 56.4255 182.912 56.8584C182.776 57.2852 182.708 57.7707 182.708 58.3149ZM180.992 58.3149C180.992 57.5171 181.112 56.812 181.354 56.1997C181.595 55.5812 181.919 55.0617 182.328 54.6411C182.736 54.2144 183.212 53.8927 183.756 53.6763C184.301 53.4598 184.879 53.3516 185.491 53.3516C186.128 53.3516 186.71 53.4598 187.235 53.6763C187.767 53.8927 188.222 54.2144 188.599 54.6411C188.983 55.0617 189.279 55.5812 189.49 56.1997C189.7 56.812 189.805 57.5171 189.805 58.3149C189.805 59.1128 189.685 59.8179 189.443 60.4302C189.202 61.0425 188.877 61.5558 188.469 61.9702C188.061 62.3846 187.585 62.7 187.041 62.9165C186.496 63.1268 185.918 63.2319 185.306 63.2319C184.669 63.2319 184.084 63.1268 183.552 62.9165C183.027 62.7 182.572 62.3846 182.188 61.9702C181.811 61.5558 181.517 61.0425 181.307 60.4302C181.097 59.8179 180.992 59.1128 180.992 58.3149ZM198.711 63V57.8975C198.711 57.3161 198.671 56.8368 198.591 56.4595C198.517 56.0822 198.402 55.7853 198.248 55.5688C198.099 55.3462 197.907 55.1916 197.672 55.105C197.444 55.0184 197.171 54.9751 196.856 54.9751C196.522 54.9751 196.194 55.0555 195.873 55.2163C195.557 55.3709 195.266 55.575 195 55.8286C194.735 56.076 194.5 56.3574 194.295 56.6729C194.091 56.9883 193.94 57.3037 193.841 57.6191V63H192.125V57.2944C192.125 56.3791 192.072 55.606 191.967 54.9751C191.868 54.3381 191.766 53.8587 191.661 53.5371H193.331C193.368 53.6361 193.405 53.766 193.442 53.9268C193.479 54.0814 193.513 54.2453 193.544 54.4185C193.575 54.5916 193.603 54.7617 193.627 54.9287L193.702 55.3462C194.289 54.6411 194.883 54.134 195.483 53.8247C196.083 53.5093 196.711 53.3516 197.366 53.3516C198.356 53.3516 199.113 53.6763 199.639 54.3257C200.165 54.9689 200.428 55.9276 200.428 57.2017V63H198.711Z" fill="#FBFBFB"/>
</g>
<defs>
<radialGradient id="paint0_radial_30_175" cx="0" cy="0" r="1" gradientUnits="userSpaceOnUse" gradientTransform="translate(307.981 40.641) rotate(44.6554) scale(82.2368 83.1472)">
<stop stop-color="white"/>
<stop offset="1" stop-color="#1E1E1E" stop-opacity="0"/>
<stop offset="1" stop-color="#0E0E35" stop-opacity="0"/>
<stop offset="1" stop-color="white" stop-opacity="0"/>
</radialGradient>
<clipPath id="clip0_30_175">
<rect width="334" height="118" rx="30" fill="white"/>
</clipPath>
</defs>
</svg>
