<svg xmlns="http://www.w3.org/2000/svg" xmlns:xlink="http://www.w3.org/1999/xlink" width="337" zoomAndPan="magnify" viewBox="0 0 252.75 143.249994" height="191" preserveAspectRatio="xMidYMid meet" version="1.0"><defs><g/><clipPath id="d5e4efab8b"><path d="M 72.226562 61 L 79 61 L 79 71.625 L 72.226562 71.625 Z M 72.226562 61 " clip-rule="nonzero"/></clipPath><clipPath id="f2d49fc67e"><path d="M 84 49 L 91 49 L 91 71.625 L 84 71.625 Z M 84 49 " clip-rule="nonzero"/></clipPath><clipPath id="17d4711152"><path d="M 96 55 L 104 55 L 104 71.625 L 96 71.625 Z M 96 55 " clip-rule="nonzero"/></clipPath><clipPath id="cf79dfb798"><path d="M 109 30 L 116 30 L 116 71.625 L 109 71.625 Z M 109 30 " clip-rule="nonzero"/></clipPath><clipPath id="d867641955"><path d="M 121 55 L 128 55 L 128 71.625 L 121 71.625 Z M 121 55 " clip-rule="nonzero"/></clipPath><clipPath id="4e7e86fa5a"><path d="M 133 0 L 140 0 L 140 71.625 L 133 71.625 Z M 133 0 " clip-rule="nonzero"/></clipPath><clipPath id="8f13e6afeb"><path d="M 146 24 L 153 24 L 153 71.625 L 146 71.625 Z M 146 24 " clip-rule="nonzero"/></clipPath><clipPath id="8c5ea1dd5d"><path d="M 158 37 L 165 37 L 165 71.625 L 158 71.625 Z M 158 37 " clip-rule="nonzero"/></clipPath><clipPath id="3b9282567a"><path d="M 170 55 L 178 55 L 178 71.625 L 170 71.625 Z M 170 55 " clip-rule="nonzero"/></clipPath></defs><g clip-path="url(#d5e4efab8b)"><path fill="#42c83c" d="M 75.320312 61.839844 C 73.613281 61.839844 72.230469 63.226562 72.230469 64.933594 L 72.230469 77.300781 C 72.230469 79.011719 73.613281 80.394531 75.320312 80.394531 C 77.027344 80.394531 78.414062 79.011719 78.414062 77.300781 L 78.414062 64.933594 C 78.414062 63.226562 77.027344 61.839844 75.320312 61.839844 Z M 75.320312 61.839844 " fill-opacity="1" fill-rule="nonzero"/></g><g clip-path="url(#f2d49fc67e)"><path fill="#42c83c" d="M 87.6875 49.472656 C 85.980469 49.472656 84.597656 50.859375 84.597656 52.566406 L 84.597656 89.671875 C 84.597656 91.378906 85.980469 92.761719 87.6875 92.761719 C 89.394531 92.761719 90.78125 91.378906 90.78125 89.671875 L 90.78125 52.566406 C 90.78125 50.859375 89.394531 49.472656 87.6875 49.472656 Z M 87.6875 49.472656 " fill-opacity="1" fill-rule="nonzero"/></g><g clip-path="url(#17d4711152)"><path fill="#42c83c" d="M 100.058594 55.65625 C 98.351562 55.65625 96.964844 57.042969 96.964844 58.75 L 96.964844 83.484375 C 96.964844 85.195312 98.351562 86.578125 100.058594 86.578125 C 101.765625 86.578125 103.148438 85.195312 103.148438 83.484375 L 103.148438 58.75 C 103.148438 57.042969 101.765625 55.65625 100.058594 55.65625 Z M 100.058594 55.65625 " fill-opacity="1" fill-rule="nonzero"/></g><g clip-path="url(#cf79dfb798)"><path fill="#42c83c" d="M 112.425781 30.921875 C 110.71875 30.921875 109.332031 32.304688 109.332031 34.011719 L 109.332031 108.222656 C 109.332031 109.933594 110.71875 111.316406 112.425781 111.316406 C 114.132812 111.316406 115.519531 109.933594 115.519531 108.222656 L 115.519531 34.011719 C 115.519531 32.304688 114.132812 30.921875 112.425781 30.921875 Z M 112.425781 30.921875 " fill-opacity="1" fill-rule="nonzero"/></g><g clip-path="url(#d867641955)"><path fill="#42c83c" d="M 124.792969 55.65625 C 123.085938 55.65625 121.703125 57.042969 121.703125 58.75 L 121.703125 83.484375 C 121.703125 85.195312 123.085938 86.578125 124.792969 86.578125 C 126.5 86.578125 127.886719 85.195312 127.886719 83.484375 L 127.886719 58.75 C 127.886719 57.042969 126.5 55.65625 124.792969 55.65625 Z M 124.792969 55.65625 " fill-opacity="1" fill-rule="nonzero"/></g><g clip-path="url(#4e7e86fa5a)"><path fill="#42c83c" d="M 136.894531 0 C 135.1875 0 133.800781 1.386719 133.800781 3.09375 L 133.800781 139.144531 C 133.800781 140.855469 135.1875 142.234375 136.894531 142.234375 C 138.601562 142.234375 139.984375 140.855469 139.984375 139.144531 L 139.984375 3.09375 C 139.984375 1.386719 138.601562 0 136.894531 0 Z M 136.894531 0 " fill-opacity="1" fill-rule="nonzero"/></g><g clip-path="url(#8f13e6afeb)"><path fill="#42c83c" d="M 149.261719 24.738281 C 147.554688 24.738281 146.171875 26.121094 146.171875 27.828125 L 146.171875 114.40625 C 146.171875 116.117188 147.554688 117.5 149.261719 117.5 C 150.96875 117.5 152.355469 116.117188 152.355469 114.40625 L 152.355469 27.828125 C 152.355469 26.121094 150.96875 24.738281 149.261719 24.738281 Z M 149.261719 24.738281 " fill-opacity="1" fill-rule="nonzero"/></g><g clip-path="url(#8c5ea1dd5d)"><path fill="#42c83c" d="M 161.628906 37.105469 C 159.921875 37.105469 158.539062 38.492188 158.539062 40.195312 L 158.539062 102.039062 C 158.539062 103.75 159.921875 105.128906 161.628906 105.128906 C 163.339844 105.128906 164.722656 103.75 164.722656 102.039062 L 164.722656 40.195312 C 164.722656 38.492188 163.339844 37.105469 161.628906 37.105469 Z M 161.628906 37.105469 " fill-opacity="1" fill-rule="nonzero"/></g><g clip-path="url(#3b9282567a)"><path fill="#42c83c" d="M 174 55.65625 C 172.289062 55.65625 170.90625 57.042969 170.90625 58.75 L 170.90625 83.484375 C 170.90625 85.195312 172.289062 86.578125 174 86.578125 C 175.707031 86.578125 177.089844 85.195312 177.089844 83.484375 L 177.089844 58.75 C 177.089844 57.042969 175.707031 55.65625 174 55.65625 Z M 174 55.65625 " fill-opacity="1" fill-rule="nonzero"/></g><g fill="#42c83c" fill-opacity="1"><g transform="translate(53.56205, 119.6934)"><g><path d="M 6.0625 0 L 2.21875 0 L 2.21875 -18.984375 L 5.265625 -18.984375 L 6.0625 -17.359375 C 6.539062 -17.910156 7.109375 -18.390625 7.765625 -18.796875 C 8.421875 -19.210938 9.226562 -19.421875 10.1875 -19.421875 C 10.550781 -19.421875 10.960938 -19.375 11.421875 -19.28125 C 11.890625 -19.1875 12.367188 -19.023438 12.859375 -18.796875 C 13.347656 -18.578125 13.816406 -18.273438 14.265625 -17.890625 C 14.710938 -17.503906 15.097656 -17.007812 15.421875 -16.40625 C 15.867188 -17.226562 16.546875 -17.9375 17.453125 -18.53125 C 18.367188 -19.125 19.34375 -19.421875 20.375 -19.421875 C 21.050781 -19.421875 21.773438 -19.3125 22.546875 -19.09375 C 23.316406 -18.882812 24.03125 -18.488281 24.6875 -17.90625 C 25.34375 -17.320312 25.878906 -16.515625 26.296875 -15.484375 C 26.722656 -14.460938 26.9375 -13.128906 26.9375 -11.484375 L 26.9375 0 L 23.34375 0 L 23.34375 -11.53125 C 23.34375 -13.164062 23.003906 -14.304688 22.328125 -14.953125 C 21.648438 -15.597656 20.757812 -15.921875 19.65625 -15.921875 C 18.8125 -15.921875 18.070312 -15.566406 17.4375 -14.859375 C 16.800781 -14.148438 16.484375 -13.023438 16.484375 -11.484375 L 16.484375 0 L 12.875 0 L 12.875 -11.53125 C 12.875 -13.164062 12.535156 -14.304688 11.859375 -14.953125 C 11.191406 -15.597656 10.300781 -15.921875 9.1875 -15.921875 C 8.394531 -15.921875 7.703125 -15.617188 7.109375 -15.015625 C 6.515625 -14.410156 6.164062 -13.460938 6.0625 -12.171875 Z M 6.0625 0 "/></g></g></g><g fill="#42c83c" fill-opacity="1"><g transform="translate(82.787882, 119.6934)"><g><path d="M 11.21875 0.46875 C 9.84375 0.46875 8.550781 0.210938 7.34375 -0.296875 C 6.144531 -0.804688 5.097656 -1.507812 4.203125 -2.40625 C 3.304688 -3.3125 2.597656 -4.367188 2.078125 -5.578125 C 1.566406 -6.796875 1.3125 -8.09375 1.3125 -9.46875 C 1.3125 -10.84375 1.554688 -12.132812 2.046875 -13.34375 C 2.535156 -14.5625 3.191406 -15.617188 4.015625 -16.515625 C 4.847656 -17.421875 5.816406 -18.128906 6.921875 -18.640625 C 8.035156 -19.160156 9.226562 -19.421875 10.5 -19.421875 C 11.789062 -19.421875 12.984375 -19.191406 14.078125 -18.734375 C 15.179688 -18.285156 16.132812 -17.585938 16.9375 -16.640625 C 17.738281 -15.691406 18.363281 -14.484375 18.8125 -13.015625 C 19.269531 -11.546875 19.5 -9.796875 19.5 -7.765625 L 5.390625 -7.765625 C 5.578125 -7.078125 5.867188 -6.4375 6.265625 -5.84375 C 6.660156 -5.25 7.128906 -4.734375 7.671875 -4.296875 C 8.210938 -3.859375 8.816406 -3.519531 9.484375 -3.28125 C 10.160156 -3.050781 10.867188 -2.9375 11.609375 -2.9375 C 12.609375 -2.9375 13.535156 -3.117188 14.390625 -3.484375 C 15.253906 -3.859375 15.992188 -4.347656 16.609375 -4.953125 L 18.984375 -2.578125 C 18.054688 -1.648438 16.925781 -0.910156 15.59375 -0.359375 C 14.257812 0.191406 12.800781 0.46875 11.21875 0.46875 Z M 10.5 -15.921875 C 9.894531 -15.921875 9.320312 -15.800781 8.78125 -15.5625 C 8.238281 -15.332031 7.734375 -15.003906 7.265625 -14.578125 C 6.804688 -14.160156 6.410156 -13.660156 6.078125 -13.078125 C 5.753906 -12.492188 5.507812 -11.859375 5.34375 -11.171875 L 15.375 -11.171875 C 15.320312 -11.804688 15.175781 -12.414062 14.9375 -13 C 14.695312 -13.582031 14.363281 -14.085938 13.9375 -14.515625 C 13.519531 -14.953125 13.023438 -15.296875 12.453125 -15.546875 C 11.890625 -15.796875 11.238281 -15.921875 10.5 -15.921875 Z M 10.5 -15.921875 "/></g></g></g><g fill="#42c83c" fill-opacity="1"><g transform="translate(103.776621, 119.6934)"><g><path d="M 6.265625 -28.921875 L 6.265625 0 L 2.421875 0 L 2.421875 -28.921875 Z M 6.265625 -28.921875 "/></g></g></g><g fill="#42c83c" fill-opacity="1"><g transform="translate(112.172125, 119.6934)"><g><path d="M 10.546875 0.46875 C 9.222656 0.46875 7.984375 0.210938 6.828125 -0.296875 C 5.679688 -0.804688 4.675781 -1.507812 3.8125 -2.40625 C 2.957031 -3.3125 2.28125 -4.367188 1.78125 -5.578125 C 1.28125 -6.796875 1.03125 -8.09375 1.03125 -9.46875 C 1.03125 -10.84375 1.28125 -12.132812 1.78125 -13.34375 C 2.28125 -14.5625 2.957031 -15.617188 3.8125 -16.515625 C 4.675781 -17.421875 5.679688 -18.128906 6.828125 -18.640625 C 7.984375 -19.160156 9.222656 -19.421875 10.546875 -19.421875 C 11.835938 -19.421875 13.0625 -19.160156 14.21875 -18.640625 C 15.382812 -18.128906 16.394531 -17.421875 17.25 -16.515625 C 18.113281 -15.617188 18.796875 -14.5625 19.296875 -13.34375 C 19.796875 -12.132812 20.046875 -10.84375 20.046875 -9.46875 C 20.046875 -8.09375 19.796875 -6.796875 19.296875 -5.578125 C 18.796875 -4.367188 18.113281 -3.3125 17.25 -2.40625 C 16.394531 -1.507812 15.382812 -0.804688 14.21875 -0.296875 C 13.0625 0.210938 11.835938 0.46875 10.546875 0.46875 Z M 10.546875 -15.96875 C 9.773438 -15.96875 9.046875 -15.796875 8.359375 -15.453125 C 7.671875 -15.109375 7.066406 -14.644531 6.546875 -14.0625 C 6.035156 -13.476562 5.632812 -12.789062 5.34375 -12 C 5.050781 -11.207031 4.90625 -10.363281 4.90625 -9.46875 C 4.90625 -8.570312 5.050781 -7.726562 5.34375 -6.9375 C 5.632812 -6.144531 6.035156 -5.453125 6.546875 -4.859375 C 7.066406 -4.265625 7.671875 -3.796875 8.359375 -3.453125 C 9.046875 -3.109375 9.773438 -2.9375 10.546875 -2.9375 C 11.304688 -2.9375 12.03125 -3.109375 12.71875 -3.453125 C 13.40625 -3.796875 14 -4.265625 14.5 -4.859375 C 15 -5.453125 15.394531 -6.144531 15.6875 -6.9375 C 15.976562 -7.726562 16.125 -8.570312 16.125 -9.46875 C 16.125 -10.363281 15.976562 -11.207031 15.6875 -12 C 15.394531 -12.789062 15 -13.476562 14.5 -14.0625 C 14 -14.644531 13.40625 -15.109375 12.71875 -15.453125 C 12.03125 -15.796875 11.304688 -15.96875 10.546875 -15.96875 Z M 10.546875 -15.96875 "/></g></g></g><g fill="#42c83c" fill-opacity="1"><g transform="translate(133.081669, 119.6934)"><g><path d="M 6.0625 0 L 2.21875 0 L 2.21875 -28.921875 L 6.0625 -28.921875 L 6.0625 -17.234375 C 6.769531 -18.023438 7.515625 -18.585938 8.296875 -18.921875 C 9.078125 -19.253906 9.984375 -19.421875 11.015625 -19.421875 C 12.335938 -19.421875 13.519531 -19.160156 14.5625 -18.640625 C 15.601562 -18.128906 16.492188 -17.421875 17.234375 -16.515625 C 17.972656 -15.617188 18.535156 -14.5625 18.921875 -13.34375 C 19.304688 -12.132812 19.5 -10.84375 19.5 -9.46875 L 19.5 0 L 15.609375 0 L 15.609375 -9.46875 C 15.609375 -10.363281 15.484375 -11.207031 15.234375 -12 C 14.984375 -12.789062 14.640625 -13.476562 14.203125 -14.0625 C 13.765625 -14.644531 13.257812 -15.097656 12.6875 -15.421875 C 12.125 -15.753906 11.515625 -15.921875 10.859375 -15.921875 C 10.304688 -15.921875 9.75 -15.804688 9.1875 -15.578125 C 8.632812 -15.359375 8.125 -15 7.65625 -14.5 C 7.195312 -14 6.816406 -13.335938 6.515625 -12.515625 C 6.210938 -11.703125 6.0625 -10.710938 6.0625 -9.546875 Z M 6.0625 0 "/></g></g></g><g fill="#42c83c" fill-opacity="1"><g transform="translate(154.54564, 119.6934)"><g><path d="M 15.0625 -1.703125 C 14.394531 -1.097656 13.617188 -0.597656 12.734375 -0.203125 C 11.847656 0.191406 10.863281 0.390625 9.78125 0.390625 C 9.09375 0.390625 8.3125 0.289062 7.4375 0.09375 C 6.570312 -0.101562 5.765625 -0.488281 5.015625 -1.0625 C 4.265625 -1.644531 3.628906 -2.445312 3.109375 -3.46875 C 2.597656 -4.488281 2.34375 -5.816406 2.34375 -7.453125 L 2.34375 -18.984375 L 5.984375 -18.984375 L 5.984375 -7.453125 C 5.984375 -6.628906 6.109375 -5.929688 6.359375 -5.359375 C 6.609375 -4.796875 6.9375 -4.34375 7.34375 -4 C 7.757812 -3.65625 8.226562 -3.40625 8.75 -3.25 C 9.28125 -3.09375 9.820312 -3.015625 10.375 -3.015625 C 10.800781 -3.015625 11.285156 -3.09375 11.828125 -3.25 C 12.367188 -3.40625 12.875 -3.660156 13.34375 -4.015625 C 13.820312 -4.378906 14.226562 -4.835938 14.5625 -5.390625 C 14.894531 -5.941406 15.0625 -6.613281 15.0625 -7.40625 L 15.0625 -18.984375 L 18.90625 -18.984375 L 18.90625 0 L 15.84375 0 Z M 15.0625 -1.703125 "/></g></g></g><g fill="#42c83c" fill-opacity="1"><g transform="translate(175.732397, 119.6934)"><g><path d="M 5.390625 0 L 2.34375 0 L 2.34375 -28.921875 L 6.1875 -28.921875 L 6.1875 -16.921875 C 6.925781 -17.710938 7.78125 -18.328125 8.75 -18.765625 C 9.726562 -19.203125 10.867188 -19.421875 12.171875 -19.421875 C 13.484375 -19.421875 14.703125 -19.160156 15.828125 -18.640625 C 16.953125 -18.128906 17.921875 -17.421875 18.734375 -16.515625 C 19.554688 -15.617188 20.195312 -14.5625 20.65625 -13.34375 C 21.125 -12.132812 21.359375 -10.84375 21.359375 -9.46875 C 21.359375 -8.09375 21.125 -6.796875 20.65625 -5.578125 C 20.195312 -4.367188 19.554688 -3.3125 18.734375 -2.40625 C 17.921875 -1.507812 16.953125 -0.804688 15.828125 -0.296875 C 14.703125 0.210938 13.484375 0.46875 12.171875 0.46875 C 10.921875 0.46875 9.800781 0.253906 8.8125 -0.171875 C 7.820312 -0.609375 6.945312 -1.210938 6.1875 -1.984375 Z M 11.84375 -15.921875 C 11.082031 -15.921875 10.359375 -15.804688 9.671875 -15.578125 C 8.984375 -15.359375 8.378906 -14.988281 7.859375 -14.46875 C 7.347656 -13.957031 6.945312 -13.289062 6.65625 -12.46875 C 6.363281 -11.65625 6.21875 -10.65625 6.21875 -9.46875 C 6.21875 -8.363281 6.363281 -7.398438 6.65625 -6.578125 C 6.945312 -5.753906 7.347656 -5.070312 7.859375 -4.53125 C 8.378906 -3.988281 8.984375 -3.585938 9.671875 -3.328125 C 10.359375 -3.066406 11.082031 -2.9375 11.84375 -2.9375 C 12.613281 -2.9375 13.34375 -3.109375 14.03125 -3.453125 C 14.71875 -3.796875 15.3125 -4.265625 15.8125 -4.859375 C 16.3125 -5.453125 16.707031 -6.144531 17 -6.9375 C 17.289062 -7.726562 17.4375 -8.570312 17.4375 -9.46875 C 17.4375 -10.363281 17.289062 -11.207031 17 -12 C 16.707031 -12.789062 16.3125 -13.476562 15.8125 -14.0625 C 15.3125 -14.644531 14.71875 -15.097656 14.03125 -15.421875 C 13.34375 -15.753906 12.613281 -15.921875 11.84375 -15.921875 Z M 11.84375 -15.921875 "/></g></g></g></svg>